0
SECTION
2
HEADER
9
$ACADVER
1
AC1009
9
$INSUNITS
70
4
0
ENDSEC
0
SECTION
2
TABLES
0
TABLE
2
LAYER
70
7
0
LAYER
2
0
70
0
62
7
6
CONTINUOUS
0
LAYER
2
MEMBERS
70
0
62
1
6
CONTINUOUS
0
LAYER
2
BOARDS
70
0
62
3
6
CONTINUOUS
0
LAYER
2
FITTINGS
70
0
62
5
6
CONTINUOUS
0
LAYER
2
DIMS
70
0
62
2
6
CONTINUOUS
0
LAYER
2
TEXT
70
0
62
4
6
CONTINUOUS
0
LAYER
2
CUTSHEET
70
0
62
6
6
CONTINUOUS
0
ENDTAB
0
ENDSEC
0
SECTION
2
ENTITIES
0
LINE
8
MEMBERS
10
0
20
0
30
0
11
3640
21
0
31
0
0
LINE
8
MEMBERS
10
3640
20
0
30
0
11
3640
21
40
31
0
0
LINE
8
MEMBERS
10
3640
20
40
30
0
11
0
21
40
31
0
0
LINE
8
MEMBERS
10
0
20
40
30
0
11
0
21
0
31
0
0
LINE
8
MEMBERS
10
20
20
0
30
0
11
3600
21
0
31
0
0
LINE
8
MEMBERS
10
3600
20
0
30
0
11
3600
21
40
31
0
0
LINE
8
MEMBERS
10
3600
20
40
30
0
11
20
21
40
31
0
0
LINE
8
MEMBERS
10
20
20
40
30
0
11
20
21
0
31
0
0
LINE
8
MEMBERS
10
0
20
40
30
0
11
40
21
40
31
0
0
LINE
8
MEMBERS
10
40
20
40
30
0
11
40
21
890
31
0
0
LINE
8
MEMBERS
10
40
20
890
30
0
11
0
21
890
31
0
0
LINE
8
MEMBERS
10
0
20
890
30
0
11
0
21
40
31
0
0
LINE
8
MEMBERS
10
3600
20
40
30
0
11
3640
21
40
31
0
0
LINE
8
MEMBERS
10
3640
20
40
30
0
11
3640
21
890
31
0
0
LINE
8
MEMBERS
10
3640
20
890
30
0
11
3600
21
890
31
0
0
LINE
8
MEMBERS
10
3600
20
890
30
0
11
3600
21
40
31
0
0
LINE
8
MEMBERS
10
0
20
40
30
0
11
40
21
40
31
0
0
LINE
8
MEMBERS
10
40
20
40
30
0
11
40
21
890
31
0
0
LINE
8
MEMBERS
10
40
20
890
30
0
11
0
21
890
31
0
0
LINE
8
MEMBERS
10
0
20
890
30
0
11
0
21
40
31
0
0
LINE
8
MEMBERS
10
3600
20
40
30
0
11
3640
21
40
31
0
0
LINE
8
MEMBERS
10
3640
20
40
30
0
11
3640
21
890
31
0
0
LINE
8
MEMBERS
10
3640
20
890
30
0
11
3600
21
890
31
0
0
LINE
8
MEMBERS
10
3600
20
890
30
0
11
3600
21
40
31
0
0
LINE
8
MEMBERS
10
610
20
40
30
0
11
630
21
40
31
0
0
LINE
8
MEMBERS
10
630
20
40
30
0
11
630
21
890
31
0
0
LINE
8
MEMBERS
10
630
20
890
30
0
11
610
21
890
31
0
0
LINE
8
MEMBERS
10
610
20
890
30
0
11
610
21
40
31
0
0
LINE
8
MEMBERS
10
610
20
40
30
0
11
630
21
40
31
0
0
LINE
8
MEMBERS
10
630
20
40
30
0
11
630
21
890
31
0
0
LINE
8
MEMBERS
10
630
20
890
30
0
11
610
21
890
31
0
0
LINE
8
MEMBERS
10
610
20
890
30
0
11
610
21
40
31
0
0
LINE
8
MEMBERS
10
1210
20
40
30
0
11
1230
21
40
31
0
0
LINE
8
MEMBERS
10
1230
20
40
30
0
11
1230
21
890
31
0
0
LINE
8
MEMBERS
10
1230
20
890
30
0
11
1210
21
890
31
0
0
LINE
8
MEMBERS
10
1210
20
890
30
0
11
1210
21
40
31
0
0
LINE
8
MEMBERS
10
1210
20
40
30
0
11
1230
21
40
31
0
0
LINE
8
MEMBERS
10
1230
20
40
30
0
11
1230
21
890
31
0
0
LINE
8
MEMBERS
10
1230
20
890
30
0
11
1210
21
890
31
0
0
LINE
8
MEMBERS
10
1210
20
890
30
0
11
1210
21
40
31
0
0
LINE
8
MEMBERS
10
1810
20
40
30
0
11
1830
21
40
31
0
0
LINE
8
MEMBERS
10
1830
20
40
30
0
11
1830
21
890
31
0
0
LINE
8
MEMBERS
10
1830
20
890
30
0
11
1810
21
890
31
0
0
LINE
8
MEMBERS
10
1810
20
890
30
0
11
1810
21
40
31
0
0
LINE
8
MEMBERS
10
1810
20
40
30
0
11
1830
21
40
31
0
0
LINE
8
MEMBERS
10
1830
20
40
30
0
11
1830
21
890
31
0
0
LINE
8
MEMBERS
10
1830
20
890
30
0
11
1810
21
890
31
0
0
LINE
8
MEMBERS
10
1810
20
890
30
0
11
1810
21
40
31
0
0
LINE
8
MEMBERS
10
2410
20
40
30
0
11
2430
21
40
31
0
0
LINE
8
MEMBERS
10
2430
20
40
30
0
11
2430
21
890
31
0
0
LINE
8
MEMBERS
10
2430
20
890
30
0
11
2410
21
890
31
0
0
LINE
8
MEMBERS
10
2410
20
890
30
0
11
2410
21
40
31
0
0
LINE
8
MEMBERS
10
2410
20
40
30
0
11
2430
21
40
31
0
0
LINE
8
MEMBERS
10
2430
20
40
30
0
11
2430
21
890
31
0
0
LINE
8
MEMBERS
10
2430
20
890
30
0
11
2410
21
890
31
0
0
LINE
8
MEMBERS
10
2410
20
890
30
0
11
2410
21
40
31
0
0
LINE
8
MEMBERS
10
3010
20
40
30
0
11
3030
21
40
31
0
0
LINE
8
MEMBERS
10
3030
20
40
30
0
11
3030
21
890
31
0
0
LINE
8
MEMBERS
10
3030
20
890
30
0
11
3010
21
890
31
0
0
LINE
8
MEMBERS
10
3010
20
890
30
0
11
3010
21
40
31
0
0
LINE
8
MEMBERS
10
3010
20
40
30
0
11
3030
21
40
31
0
0
LINE
8
MEMBERS
10
3030
20
40
30
0
11
3030
21
890
31
0
0
LINE
8
MEMBERS
10
3030
20
890
30
0
11
3010
21
890
31
0
0
LINE
8
MEMBERS
10
3010
20
890
30
0
11
3010
21
40
31
0
0
LINE
8
MEMBERS
10
0
20
890
30
0
11
3640
21
890
31
0
0
LINE
8
MEMBERS
10
3640
20
890
30
0
11
3640
21
910
31
0
0
LINE
8
MEMBERS
10
3640
20
910
30
0
11
0
21
910
31
0
0
LINE
8
MEMBERS
10
0
20
910
30
0
11
0
21
890
31
0
0
LINE
8
MEMBERS
10
0
20
890
30
0
11
3640
21
890
31
0
0
LINE
8
MEMBERS
10
3640
20
890
30
0
11
3640
21
910
31
0
0
LINE
8
MEMBERS
10
3640
20
910
30
0
11
0
21
910
31
0
0
LINE
8
MEMBERS
10
0
20
910
30
0
11
0
21
890
31
0
0
LINE
8
MEMBERS
10
0
20
0
30
0
11
20
21
0
31
0
0
LINE
8
MEMBERS
10
20
20
0
30
0
11
20
21
40
31
0
0
LINE
8
MEMBERS
10
20
20
40
30
0
11
0
21
40
31
0
0
LINE
8
MEMBERS
10
0
20
40
30
0
11
0
21
0
31
0
0
LINE
8
MEMBERS
10
610
20
20
30
0
11
630
21
20
31
0
0
LINE
8
MEMBERS
10
630
20
20
30
0
11
630
21
40
31
0
0
LINE
8
MEMBERS
10
630
20
40
30
0
11
610
21
40
31
0
0
LINE
8
MEMBERS
10
610
20
40
30
0
11
610
21
20
31
0
0
LINE
8
MEMBERS
10
1210
20
20
30
0
11
1230
21
20
31
0
0
LINE
8
MEMBERS
10
1230
20
20
30
0
11
1230
21
40
31
0
0
LINE
8
MEMBERS
10
1230
20
40
30
0
11
1210
21
40
31
0
0
LINE
8
MEMBERS
10
1210
20
40
30
0
11
1210
21
20
31
0
0
LINE
8
MEMBERS
10
1810
20
20
30
0
11
1830
21
20
31
0
0
LINE
8
MEMBERS
10
1830
20
20
30
0
11
1830
21
40
31
0
0
LINE
8
MEMBERS
10
1830
20
40
30
0
11
1810
21
40
31
0
0
LINE
8
MEMBERS
10
1810
20
40
30
0
11
1810
21
20
31
0
0
LINE
8
MEMBERS
10
2410
20
20
30
0
11
2430
21
20
31
0
0
LINE
8
MEMBERS
10
2430
20
20
30
0
11
2430
21
40
31
0
0
LINE
8
MEMBERS
10
2430
20
40
30
0
11
2410
21
40
31
0
0
LINE
8
MEMBERS
10
2410
20
40
30
0
11
2410
21
20
31
0
0
LINE
8
MEMBERS
10
3010
20
20
30
0
11
3030
21
20
31
0
0
LINE
8
MEMBERS
10
3030
20
20
30
0
11
3030
21
40
31
0
0
LINE
8
MEMBERS
10
3030
20
40
30
0
11
3010
21
40
31
0
0
LINE
8
MEMBERS
10
3010
20
40
30
0
11
3010
21
20
31
0
0
LINE
8
MEMBERS
10
3600
20
0
30
0
11
3620
21
0
31
0
0
LINE
8
MEMBERS
10
3620
20
0
30
0
11
3620
21
40
31
0
0
LINE
8
MEMBERS
10
3620
20
40
30
0
11
3600
21
40
31
0
0
LINE
8
MEMBERS
10
3600
20
40
30
0
11
3600
21
0
31
0
0
LINE
8
MEMBERS
10
0
20
890
30
0
11
40
21
890
31
0
0
LINE
8
MEMBERS
10
40
20
890
30
0
11
40
21
910
31
0
0
LINE
8
MEMBERS
10
40
20
910
30
0
11
0
21
910
31
0
0
LINE
8
MEMBERS
10
0
20
910
30
0
11
0
21
890
31
0
0
LINE
8
MEMBERS
10
610
20
890
30
0
11
630
21
890
31
0
0
LINE
8
MEMBERS
10
630
20
890
30
0
11
630
21
910
31
0
0
LINE
8
MEMBERS
10
630
20
910
30
0
11
610
21
910
31
0
0
LINE
8
MEMBERS
10
610
20
910
30
0
11
610
21
890
31
0
0
LINE
8
MEMBERS
10
1210
20
890
30
0
11
1230
21
890
31
0
0
LINE
8
MEMBERS
10
1230
20
890
30
0
11
1230
21
910
31
0
0
LINE
8
MEMBERS
10
1230
20
910
30
0
11
1210
21
910
31
0
0
LINE
8
MEMBERS
10
1210
20
910
30
0
11
1210
21
890
31
0
0
LINE
8
MEMBERS
10
1810
20
890
30
0
11
1830
21
890
31
0
0
LINE
8
MEMBERS
10
1830
20
890
30
0
11
1830
21
910
31
0
0
LINE
8
MEMBERS
10
1830
20
910
30
0
11
1810
21
910
31
0
0
LINE
8
MEMBERS
10
1810
20
910
30
0
11
1810
21
890
31
0
0
LINE
8
MEMBERS
10
2410
20
890
30
0
11
2430
21
890
31
0
0
LINE
8
MEMBERS
10
2430
20
890
30
0
11
2430
21
910
31
0
0
LINE
8
MEMBERS
10
2430
20
910
30
0
11
2410
21
910
31
0
0
LINE
8
MEMBERS
10
2410
20
910
30
0
11
2410
21
890
31
0
0
LINE
8
MEMBERS
10
3010
20
890
30
0
11
3030
21
890
31
0
0
LINE
8
MEMBERS
10
3030
20
890
30
0
11
3030
21
910
31
0
0
LINE
8
MEMBERS
10
3030
20
910
30
0
11
3010
21
910
31
0
0
LINE
8
MEMBERS
10
3010
20
910
30
0
11
3010
21
890
31
0
0
LINE
8
MEMBERS
10
3600
20
890
30
0
11
3640
21
890
31
0
0
LINE
8
MEMBERS
10
3640
20
890
30
0
11
3640
21
910
31
0
0
LINE
8
MEMBERS
10
3640
20
910
30
0
11
3600
21
910
31
0
0
LINE
8
MEMBERS
10
3600
20
910
30
0
11
3600
21
890
31
0
0
LINE
8
MEMBERS
10
10
20
1480
30
0
11
3630
21
1480
31
0
0
LINE
8
MEMBERS
10
3630
20
1480
30
0
11
3630
21
1520
31
0
0
LINE
8
MEMBERS
10
3630
20
1520
30
0
11
10
21
1520
31
0
0
LINE
8
MEMBERS
10
10
20
1520
30
0
11
10
21
1480
31
0
0
LINE
8
MEMBERS
10
10
20
1480
30
0
11
3630
21
1480
31
0
0
LINE
8
MEMBERS
10
3630
20
1480
30
0
11
3630
21
1520
31
0
0
LINE
8
MEMBERS
10
3630
20
1520
30
0
11
10
21
1520
31
0
0
LINE
8
MEMBERS
10
10
20
1520
30
0
11
10
21
1480
31
0
0
LINE
8
MEMBERS
10
10
20
1520
30
0
11
30
21
1520
31
0
0
LINE
8
MEMBERS
10
30
20
1520
30
0
11
30
21
2180
31
0
0
LINE
8
MEMBERS
10
30
20
2180
30
0
11
10
21
2180
31
0
0
LINE
8
MEMBERS
10
10
20
2180
30
0
11
10
21
1520
31
0
0
LINE
8
MEMBERS
10
10
20
1520
30
0
11
30
21
1520
31
0
0
LINE
8
MEMBERS
10
30
20
1520
30
0
11
30
21
2180
31
0
0
LINE
8
MEMBERS
10
30
20
2180
30
0
11
10
21
2180
31
0
0
LINE
8
MEMBERS
10
10
20
2180
30
0
11
10
21
1520
31
0
0
LINE
8
MEMBERS
10
610
20
1520
30
0
11
630
21
1520
31
0
0
LINE
8
MEMBERS
10
630
20
1520
30
0
11
630
21
2180
31
0
0
LINE
8
MEMBERS
10
630
20
2180
30
0
11
610
21
2180
31
0
0
LINE
8
MEMBERS
10
610
20
2180
30
0
11
610
21
1520
31
0
0
LINE
8
MEMBERS
10
610
20
1520
30
0
11
630
21
1520
31
0
0
LINE
8
MEMBERS
10
630
20
1520
30
0
11
630
21
2180
31
0
0
LINE
8
MEMBERS
10
630
20
2180
30
0
11
610
21
2180
31
0
0
LINE
8
MEMBERS
10
610
20
2180
30
0
11
610
21
1520
31
0
0
LINE
8
MEMBERS
10
1210
20
1520
30
0
11
1230
21
1520
31
0
0
LINE
8
MEMBERS
10
1230
20
1520
30
0
11
1230
21
2180
31
0
0
LINE
8
MEMBERS
10
1230
20
2180
30
0
11
1210
21
2180
31
0
0
LINE
8
MEMBERS
10
1210
20
2180
30
0
11
1210
21
1520
31
0
0
LINE
8
MEMBERS
10
1210
20
1520
30
0
11
1230
21
1520
31
0
0
LINE
8
MEMBERS
10
1230
20
1520
30
0
11
1230
21
2180
31
0
0
LINE
8
MEMBERS
10
1230
20
2180
30
0
11
1210
21
2180
31
0
0
LINE
8
MEMBERS
10
1210
20
2180
30
0
11
1210
21
1520
31
0
0
LINE
8
MEMBERS
10
1810
20
1520
30
0
11
1830
21
1520
31
0
0
LINE
8
MEMBERS
10
1830
20
1520
30
0
11
1830
21
2180
31
0
0
LINE
8
MEMBERS
10
1830
20
2180
30
0
11
1810
21
2180
31
0
0
LINE
8
MEMBERS
10
1810
20
2180
30
0
11
1810
21
1520
31
0
0
LINE
8
MEMBERS
10
1810
20
1520
30
0
11
1830
21
1520
31
0
0
LINE
8
MEMBERS
10
1830
20
1520
30
0
11
1830
21
2180
31
0
0
LINE
8
MEMBERS
10
1830
20
2180
30
0
11
1810
21
2180
31
0
0
LINE
8
MEMBERS
10
1810
20
2180
30
0
11
1810
21
1520
31
0
0
LINE
8
MEMBERS
10
2410
20
1520
30
0
11
2430
21
1520
31
0
0
LINE
8
MEMBERS
10
2430
20
1520
30
0
11
2430
21
2180
31
0
0
LINE
8
MEMBERS
10
2430
20
2180
30
0
11
2410
21
2180
31
0
0
LINE
8
MEMBERS
10
2410
20
2180
30
0
11
2410
21
1520
31
0
0
LINE
8
MEMBERS
10
2410
20
1520
30
0
11
2430
21
1520
31
0
0
LINE
8
MEMBERS
10
2430
20
1520
30
0
11
2430
21
2180
31
0
0
LINE
8
MEMBERS
10
2430
20
2180
30
0
11
2410
21
2180
31
0
0
LINE
8
MEMBERS
10
2410
20
2180
30
0
11
2410
21
1520
31
0
0
LINE
8
MEMBERS
10
3010
20
1520
30
0
11
3030
21
1520
31
0
0
LINE
8
MEMBERS
10
3030
20
1520
30
0
11
3030
21
2180
31
0
0
LINE
8
MEMBERS
10
3030
20
2180
30
0
11
3010
21
2180
31
0
0
LINE
8
MEMBERS
10
3010
20
2180
30
0
11
3010
21
1520
31
0
0
LINE
8
MEMBERS
10
3010
20
1520
30
0
11
3030
21
1520
31
0
0
LINE
8
MEMBERS
10
3030
20
1520
30
0
11
3030
21
2180
31
0
0
LINE
8
MEMBERS
10
3030
20
2180
30
0
11
3010
21
2180
31
0
0
LINE
8
MEMBERS
10
3010
20
2180
30
0
11
3010
21
1520
31
0
0
LINE
8
MEMBERS
10
3610
20
1520
30
0
11
3630
21
1520
31
0
0
LINE
8
MEMBERS
10
3630
20
1520
30
0
11
3630
21
2180
31
0
0
LINE
8
MEMBERS
10
3630
20
2180
30
0
11
3610
21
2180
31
0
0
LINE
8
MEMBERS
10
3610
20
2180
30
0
11
3610
21
1520
31
0
0
LINE
8
MEMBERS
10
3610
20
1520
30
0
11
3630
21
1520
31
0
0
LINE
8
MEMBERS
10
3630
20
1520
30
0
11
3630
21
2180
31
0
0
LINE
8
MEMBERS
10
3630
20
2180
30
0
11
3610
21
2180
31
0
0
LINE
8
MEMBERS
10
3610
20
2180
30
0
11
3610
21
1520
31
0
0
LINE
8
MEMBERS
10
10
20
2180
30
0
11
3630
21
2180
31
0
0
LINE
8
MEMBERS
10
3630
20
2180
30
0
11
3630
21
2220
31
0
0
LINE
8
MEMBERS
10
3630
20
2220
30
0
11
10
21
2220
31
0
0
LINE
8
MEMBERS
10
10
20
2220
30
0
11
10
21
2180
31
0
0
LINE
8
MEMBERS
10
10
20
2180
30
0
11
3630
21
2180
31
0
0
LINE
8
MEMBERS
10
3630
20
2180
30
0
11
3630
21
2220
31
0
0
LINE
8
MEMBERS
10
3630
20
2220
30
0
11
10
21
2220
31
0
0
LINE
8
MEMBERS
10
10
20
2220
30
0
11
10
21
2180
31
0
0
LINE
8
MEMBERS
10
10
20
1500
30
0
11
30
21
1500
31
0
0
LINE
8
MEMBERS
10
30
20
1500
30
0
11
30
21
1520
31
0
0
LINE
8
MEMBERS
10
30
20
1520
30
0
11
10
21
1520
31
0
0
LINE
8
MEMBERS
10
10
20
1520
30
0
11
10
21
1500
31
0
0
LINE
8
MEMBERS
10
10
20
2200
30
0
11
30
21
2200
31
0
0
LINE
8
MEMBERS
10
30
20
2200
30
0
11
30
21
2220
31
0
0
LINE
8
MEMBERS
10
30
20
2220
30
0
11
10
21
2220
31
0
0
LINE
8
MEMBERS
10
10
20
2220
30
0
11
10
21
2200
31
0
0
LINE
8
MEMBERS
10
610
20
1500
30
0
11
630
21
1500
31
0
0
LINE
8
MEMBERS
10
630
20
1500
30
0
11
630
21
1520
31
0
0
LINE
8
MEMBERS
10
630
20
1520
30
0
11
610
21
1520
31
0
0
LINE
8
MEMBERS
10
610
20
1520
30
0
11
610
21
1500
31
0
0
LINE
8
MEMBERS
10
610
20
2200
30
0
11
630
21
2200
31
0
0
LINE
8
MEMBERS
10
630
20
2200
30
0
11
630
21
2220
31
0
0
LINE
8
MEMBERS
10
630
20
2220
30
0
11
610
21
2220
31
0
0
LINE
8
MEMBERS
10
610
20
2220
30
0
11
610
21
2200
31
0
0
LINE
8
MEMBERS
10
1210
20
1500
30
0
11
1230
21
1500
31
0
0
LINE
8
MEMBERS
10
1230
20
1500
30
0
11
1230
21
1520
31
0
0
LINE
8
MEMBERS
10
1230
20
1520
30
0
11
1210
21
1520
31
0
0
LINE
8
MEMBERS
10
1210
20
1520
30
0
11
1210
21
1500
31
0
0
LINE
8
MEMBERS
10
1210
20
2200
30
0
11
1230
21
2200
31
0
0
LINE
8
MEMBERS
10
1230
20
2200
30
0
11
1230
21
2220
31
0
0
LINE
8
MEMBERS
10
1230
20
2220
30
0
11
1210
21
2220
31
0
0
LINE
8
MEMBERS
10
1210
20
2220
30
0
11
1210
21
2200
31
0
0
LINE
8
MEMBERS
10
1810
20
1500
30
0
11
1830
21
1500
31
0
0
LINE
8
MEMBERS
10
1830
20
1500
30
0
11
1830
21
1520
31
0
0
LINE
8
MEMBERS
10
1830
20
1520
30
0
11
1810
21
1520
31
0
0
LINE
8
MEMBERS
10
1810
20
1520
30
0
11
1810
21
1500
31
0
0
LINE
8
MEMBERS
10
1810
20
2200
30
0
11
1830
21
2200
31
0
0
LINE
8
MEMBERS
10
1830
20
2200
30
0
11
1830
21
2220
31
0
0
LINE
8
MEMBERS
10
1830
20
2220
30
0
11
1810
21
2220
31
0
0
LINE
8
MEMBERS
10
1810
20
2220
30
0
11
1810
21
2200
31
0
0
LINE
8
MEMBERS
10
2410
20
1500
30
0
11
2430
21
1500
31
0
0
LINE
8
MEMBERS
10
2430
20
1500
30
0
11
2430
21
1520
31
0
0
LINE
8
MEMBERS
10
2430
20
1520
30
0
11
2410
21
1520
31
0
0
LINE
8
MEMBERS
10
2410
20
1520
30
0
11
2410
21
1500
31
0
0
LINE
8
MEMBERS
10
2410
20
2200
30
0
11
2430
21
2200
31
0
0
LINE
8
MEMBERS
10
2430
20
2200
30
0
11
2430
21
2220
31
0
0
LINE
8
MEMBERS
10
2430
20
2220
30
0
11
2410
21
2220
31
0
0
LINE
8
MEMBERS
10
2410
20
2220
30
0
11
2410
21
2200
31
0
0
LINE
8
MEMBERS
10
3010
20
1500
30
0
11
3030
21
1500
31
0
0
LINE
8
MEMBERS
10
3030
20
1500
30
0
11
3030
21
1520
31
0
0
LINE
8
MEMBERS
10
3030
20
1520
30
0
11
3010
21
1520
31
0
0
LINE
8
MEMBERS
10
3010
20
1520
30
0
11
3010
21
1500
31
0
0
LINE
8
MEMBERS
10
3010
20
2200
30
0
11
3030
21
2200
31
0
0
LINE
8
MEMBERS
10
3030
20
2200
30
0
11
3030
21
2220
31
0
0
LINE
8
MEMBERS
10
3030
20
2220
30
0
11
3010
21
2220
31
0
0
LINE
8
MEMBERS
10
3010
20
2220
30
0
11
3010
21
2200
31
0
0
LINE
8
MEMBERS
10
3610
20
1500
30
0
11
3630
21
1500
31
0
0
LINE
8
MEMBERS
10
3630
20
1500
30
0
11
3630
21
1520
31
0
0
LINE
8
MEMBERS
10
3630
20
1520
30
0
11
3610
21
1520
31
0
0
LINE
8
MEMBERS
10
3610
20
1520
30
0
11
3610
21
1500
31
0
0
LINE
8
MEMBERS
10
3610
20
2200
30
0
11
3630
21
2200
31
0
0
LINE
8
MEMBERS
10
3630
20
2200
30
0
11
3630
21
2220
31
0
0
LINE
8
MEMBERS
10
3630
20
2220
30
0
11
3610
21
2220
31
0
0
LINE
8
MEMBERS
10
3610
20
2220
30
0
11
3610
21
2200
31
0
0
LINE
8
MEMBERS
10
0
20
445
30
0
11
40
21
445
31
0
0
LINE
8
MEMBERS
10
40
20
445
30
0
11
40
21
465
31
0
0
LINE
8
MEMBERS
10
40
20
465
30
0
11
0
21
465
31
0
0
LINE
8
MEMBERS
10
0
20
465
30
0
11
0
21
445
31
0
0
LINE
8
MEMBERS
10
610
20
440
30
0
11
630
21
440
31
0
0
LINE
8
MEMBERS
10
630
20
440
30
0
11
630
21
460
31
0
0
LINE
8
MEMBERS
10
630
20
460
30
0
11
610
21
460
31
0
0
LINE
8
MEMBERS
10
610
20
460
30
0
11
610
21
440
31
0
0
LINE
8
MEMBERS
10
1210
20
440
30
0
11
1230
21
440
31
0
0
LINE
8
MEMBERS
10
1230
20
440
30
0
11
1230
21
460
31
0
0
LINE
8
MEMBERS
10
1230
20
460
30
0
11
1210
21
460
31
0
0
LINE
8
MEMBERS
10
1210
20
460
30
0
11
1210
21
440
31
0
0
LINE
8
MEMBERS
10
2410
20
440
30
0
11
2430
21
440
31
0
0
LINE
8
MEMBERS
10
2430
20
440
30
0
11
2430
21
460
31
0
0
LINE
8
MEMBERS
10
2430
20
460
30
0
11
2410
21
460
31
0
0
LINE
8
MEMBERS
10
2410
20
460
30
0
11
2410
21
440
31
0
0
LINE
8
MEMBERS
10
3010
20
440
30
0
11
3030
21
440
31
0
0
LINE
8
MEMBERS
10
3030
20
440
30
0
11
3030
21
460
31
0
0
LINE
8
MEMBERS
10
3030
20
460
30
0
11
3010
21
460
31
0
0
LINE
8
MEMBERS
10
3010
20
460
30
0
11
3010
21
440
31
0
0
LINE
8
MEMBERS
10
3600
20
445
30
0
11
3640
21
445
31
0
0
LINE
8
MEMBERS
10
3640
20
445
30
0
11
3640
21
465
31
0
0
LINE
8
MEMBERS
10
3640
20
465
30
0
11
3600
21
465
31
0
0
LINE
8
MEMBERS
10
3600
20
465
30
0
11
3600
21
445
31
0
0
LINE
8
MEMBERS
10
10
20
1840
30
0
11
30
21
1840
31
0
0
LINE
8
MEMBERS
10
30
20
1840
30
0
11
30
21
1860
31
0
0
LINE
8
MEMBERS
10
30
20
1860
30
0
11
10
21
1860
31
0
0
LINE
8
MEMBERS
10
10
20
1860
30
0
11
10
21
1840
31
0
0
LINE
8
MEMBERS
10
610
20
1840
30
0
11
630
21
1840
31
0
0
LINE
8
MEMBERS
10
630
20
1840
30
0
11
630
21
1860
31
0
0
LINE
8
MEMBERS
10
630
20
1860
30
0
11
610
21
1860
31
0
0
LINE
8
MEMBERS
10
610
20
1860
30
0
11
610
21
1840
31
0
0
LINE
8
MEMBERS
10
1210
20
1840
30
0
11
1230
21
1840
31
0
0
LINE
8
MEMBERS
10
1230
20
1840
30
0
11
1230
21
1860
31
0
0
LINE
8
MEMBERS
10
1230
20
1860
30
0
11
1210
21
1860
31
0
0
LINE
8
MEMBERS
10
1210
20
1860
30
0
11
1210
21
1840
31
0
0
LINE
8
MEMBERS
10
2410
20
1840
30
0
11
2430
21
1840
31
0
0
LINE
8
MEMBERS
10
2430
20
1840
30
0
11
2430
21
1860
31
0
0
LINE
8
MEMBERS
10
2430
20
1860
30
0
11
2410
21
1860
31
0
0
LINE
8
MEMBERS
10
2410
20
1860
30
0
11
2410
21
1840
31
0
0
LINE
8
MEMBERS
10
3010
20
1840
30
0
11
3030
21
1840
31
0
0
LINE
8
MEMBERS
10
3030
20
1840
30
0
11
3030
21
1860
31
0
0
LINE
8
MEMBERS
10
3030
20
1860
30
0
11
3010
21
1860
31
0
0
LINE
8
MEMBERS
10
3010
20
1860
30
0
11
3010
21
1840
31
0
0
LINE
8
MEMBERS
10
3610
20
1840
30
0
11
3630
21
1840
31
0
0
LINE
8
MEMBERS
10
3630
20
1840
30
0
11
3630
21
1860
31
0
0
LINE
8
MEMBERS
10
3630
20
1860
30
0
11
3610
21
1860
31
0
0
LINE
8
MEMBERS
10
3610
20
1860
30
0
11
3610
21
1840
31
0
0
LINE
8
BOARDS
10
31
20
443.5
30
0
11
619
21
443.5
31
0
0
LINE
8
BOARDS
10
619
20
443.5
30
0
11
619
21
461.5
31
0
0
LINE
8
BOARDS
10
619
20
461.5
30
0
11
31
21
461.5
31
0
0
LINE
8
BOARDS
10
31
20
461.5
30
0
11
31
21
443.5
31
0
0
LINE
8
BOARDS
10
621
20
441
30
0
11
1219
21
441
31
0
0
LINE
8
BOARDS
10
1219
20
441
30
0
11
1219
21
459
31
0
0
LINE
8
BOARDS
10
1219
20
459
30
0
11
621
21
459
31
0
0
LINE
8
BOARDS
10
621
20
459
30
0
11
621
21
441
31
0
0
LINE
8
BOARDS
10
2421
20
441
30
0
11
3019
21
441
31
0
0
LINE
8
BOARDS
10
3019
20
441
30
0
11
3019
21
459
31
0
0
LINE
8
BOARDS
10
3019
20
459
30
0
11
2421
21
459
31
0
0
LINE
8
BOARDS
10
2421
20
459
30
0
11
2421
21
441
31
0
0
LINE
8
BOARDS
10
3021
20
443.5
30
0
11
3609
21
443.5
31
0
0
LINE
8
BOARDS
10
3609
20
443.5
30
0
11
3609
21
461.5
31
0
0
LINE
8
BOARDS
10
3609
20
461.5
30
0
11
3021
21
461.5
31
0
0
LINE
8
BOARDS
10
3021
20
461.5
30
0
11
3021
21
443.5
31
0
0
LINE
8
BOARDS
10
21
20
1841
30
0
11
619
21
1841
31
0
0
LINE
8
BOARDS
10
619
20
1841
30
0
11
619
21
1859
31
0
0
LINE
8
BOARDS
10
619
20
1859
30
0
11
21
21
1859
31
0
0
LINE
8
BOARDS
10
21
20
1859
30
0
11
21
21
1841
31
0
0
LINE
8
BOARDS
10
621
20
1841
30
0
11
1219
21
1841
31
0
0
LINE
8
BOARDS
10
1219
20
1841
30
0
11
1219
21
1859
31
0
0
LINE
8
BOARDS
10
1219
20
1859
30
0
11
621
21
1859
31
0
0
LINE
8
BOARDS
10
621
20
1859
30
0
11
621
21
1841
31
0
0
LINE
8
BOARDS
10
2421
20
1841
30
0
11
3019
21
1841
31
0
0
LINE
8
BOARDS
10
3019
20
1841
30
0
11
3019
21
1859
31
0
0
LINE
8
BOARDS
10
3019
20
1859
30
0
11
2421
21
1859
31
0
0
LINE
8
BOARDS
10
2421
20
1859
30
0
11
2421
21
1841
31
0
0
LINE
8
BOARDS
10
3021
20
1841
30
0
11
3619
21
1841
31
0
0
LINE
8
BOARDS
10
3619
20
1841
30
0
11
3619
21
1859
31
0
0
LINE
8
BOARDS
10
3619
20
1859
30
0
11
3021
21
1859
31
0
0
LINE
8
BOARDS
10
3021
20
1859
30
0
11
3021
21
1841
31
0
0
LINE
8
FITTINGS
10
40
20
60
30
0
11
590
21
60
31
0
0
LINE
8
FITTINGS
10
590
20
60
30
0
11
590
21
860
31
0
0
LINE
8
FITTINGS
10
590
20
860
30
0
11
40
21
860
31
0
0
LINE
8
FITTINGS
10
40
20
860
30
0
11
40
21
60
31
0
0
LINE
8
FITTINGS
10
630
20
40
30
0
11
1210
21
40
31
0
0
LINE
8
FITTINGS
10
1210
20
40
30
0
11
1210
21
880
31
0
0
LINE
8
FITTINGS
10
1210
20
880
30
0
11
630
21
880
31
0
0
LINE
8
FITTINGS
10
630
20
880
30
0
11
630
21
40
31
0
0
LINE
8
FITTINGS
10
2430
20
40
30
0
11
3010
21
40
31
0
0
LINE
8
FITTINGS
10
3010
20
40
30
0
11
3010
21
880
31
0
0
LINE
8
FITTINGS
10
3010
20
880
30
0
11
2430
21
880
31
0
0
LINE
8
FITTINGS
10
2430
20
880
30
0
11
2430
21
40
31
0
0
LINE
8
FITTINGS
10
3050
20
60
30
0
11
3600
21
60
31
0
0
LINE
8
FITTINGS
10
3600
20
60
30
0
11
3600
21
860
31
0
0
LINE
8
FITTINGS
10
3600
20
860
30
0
11
3050
21
860
31
0
0
LINE
8
FITTINGS
10
3050
20
860
30
0
11
3050
21
60
31
0
0
LINE
8
FITTINGS
10
30
20
1520
30
0
11
610
21
1520
31
0
0
LINE
8
FITTINGS
10
610
20
1520
30
0
11
610
21
2180
31
0
0
LINE
8
FITTINGS
10
610
20
2180
30
0
11
30
21
2180
31
0
0
LINE
8
FITTINGS
10
30
20
2180
30
0
11
30
21
1520
31
0
0
LINE
8
FITTINGS
10
3030
20
1520
30
0
11
3610
21
1520
31
0
0
LINE
8
FITTINGS
10
3610
20
1520
30
0
11
3610
21
2180
31
0
0
LINE
8
FITTINGS
10
3610
20
2180
30
0
11
3030
21
2180
31
0
0
LINE
8
FITTINGS
10
3030
20
2180
30
0
11
3030
21
1520
31
0
0
LINE
8
FITTINGS
10
1830
20
40
30
0
11
2410
21
40
31
0
0
LINE
8
FITTINGS
10
2410
20
40
30
0
11
2410
21
420
31
0
0
LINE
8
FITTINGS
10
2410
20
420
30
0
11
1830
21
420
31
0
0
LINE
8
FITTINGS
10
1830
20
420
30
0
11
1830
21
40
31
0
0
LINE
8
FITTINGS
10
1830
20
420
30
0
11
2410
21
420
31
0
0
LINE
8
FITTINGS
10
2410
20
420
30
0
11
2410
21
800
31
0
0
LINE
8
FITTINGS
10
2410
20
800
30
0
11
1830
21
800
31
0
0
LINE
8
FITTINGS
10
1830
20
800
30
0
11
1830
21
420
31
0
0
LINE
8
DIMS
10
0
20
0
30
0
11
0
21
-160
31
0
0
LINE
8
DIMS
10
3640
20
0
30
0
11
3640
21
-160
31
0
0
LINE
8
DIMS
10
0
20
-140
30
0
11
3640
21
-140
31
0
0
TEXT
8
DIMS
10
1748
20
-220
30
0
40
60
1
3640
0
LINE
8
DIMS
10
3640
20
0
30
0
11
3800
21
0
31
0
0
LINE
8
DIMS
10
3640
20
2220
30
0
11
3800
21
2220
31
0
0
LINE
8
DIMS
10
3780
20
0
30
0
11
3780
21
2220
31
0
0
TEXT
8
DIMS
10
3810
20
1080
30
0
40
60
1
2220
0
TEXT
8
TEXT
10
0
20
2280
30
0
40
60
1
FRONT (X-Y)
0
LINE
8
MEMBERS
10
4320
20
640
30
0
11
7960
21
640
31
0
0
LINE
8
MEMBERS
10
7960
20
640
30
0
11
7960
21
660
31
0
0
LINE
8
MEMBERS
10
7960
20
660
30
0
11
4320
21
660
31
0
0
LINE
8
MEMBERS
10
4320
20
660
30
0
11
4320
21
640
31
0
0
LINE
8
MEMBERS
10
4340
20
40
30
0
11
7920
21
40
31
0
0
LINE
8
MEMBERS
10
7920
20
40
30
0
11
7920
21
60
31
0
0
LINE
8
MEMBERS
10
7920
20
60
30
0
11
4340
21
60
31
0
0
LINE
8
MEMBERS
10
4340
20
60
30
0
11
4340
21
40
31
0
0
LINE
8
MEMBERS
10
4320
20
620
30
0
11
4360
21
620
31
0
0
LINE
8
MEMBERS
10
4360
20
620
30
0
11
4360
21
660
31
0
0
LINE
8
MEMBERS
10
4360
20
660
30
0
11
4320
21
660
31
0
0
LINE
8
MEMBERS
10
4320
20
660
30
0
11
4320
21
620
31
0
0
LINE
8
MEMBERS
10
7920
20
620
30
0
11
7960
21
620
31
0
0
LINE
8
MEMBERS
10
7960
20
620
30
0
11
7960
21
660
31
0
0
LINE
8
MEMBERS
10
7960
20
660
30
0
11
7920
21
660
31
0
0
LINE
8
MEMBERS
10
7920
20
660
30
0
11
7920
21
620
31
0
0
LINE
8
MEMBERS
10
4320
20
20
30
0
11
4360
21
20
31
0
0
LINE
8
MEMBERS
10
4360
20
20
30
0
11
4360
21
60
31
0
0
LINE
8
MEMBERS
10
4360
20
60
30
0
11
4320
21
60
31
0
0
LINE
8
MEMBERS
10
4320
20
60
30
0
11
4320
21
20
31
0
0
LINE
8
MEMBERS
10
7920
20
20
30
0
11
7960
21
20
31
0
0
LINE
8
MEMBERS
10
7960
20
20
30
0
11
7960
21
60
31
0
0
LINE
8
MEMBERS
10
7960
20
60
30
0
11
7920
21
60
31
0
0
LINE
8
MEMBERS
10
7920
20
60
30
0
11
7920
21
20
31
0
0
LINE
8
MEMBERS
10
4930
20
640
30
0
11
4950
21
640
31
0
0
LINE
8
MEMBERS
10
4950
20
640
30
0
11
4950
21
660
31
0
0
LINE
8
MEMBERS
10
4950
20
660
30
0
11
4930
21
660
31
0
0
LINE
8
MEMBERS
10
4930
20
660
30
0
11
4930
21
640
31
0
0
LINE
8
MEMBERS
10
4930
20
40
30
0
11
4950
21
40
31
0
0
LINE
8
MEMBERS
10
4950
20
40
30
0
11
4950
21
60
31
0
0
LINE
8
MEMBERS
10
4950
20
60
30
0
11
4930
21
60
31
0
0
LINE
8
MEMBERS
10
4930
20
60
30
0
11
4930
21
40
31
0
0
LINE
8
MEMBERS
10
5530
20
640
30
0
11
5550
21
640
31
0
0
LINE
8
MEMBERS
10
5550
20
640
30
0
11
5550
21
660
31
0
0
LINE
8
MEMBERS
10
5550
20
660
30
0
11
5530
21
660
31
0
0
LINE
8
MEMBERS
10
5530
20
660
30
0
11
5530
21
640
31
0
0
LINE
8
MEMBERS
10
5530
20
40
30
0
11
5550
21
40
31
0
0
LINE
8
MEMBERS
10
5550
20
40
30
0
11
5550
21
60
31
0
0
LINE
8
MEMBERS
10
5550
20
60
30
0
11
5530
21
60
31
0
0
LINE
8
MEMBERS
10
5530
20
60
30
0
11
5530
21
40
31
0
0
LINE
8
MEMBERS
10
6130
20
640
30
0
11
6150
21
640
31
0
0
LINE
8
MEMBERS
10
6150
20
640
30
0
11
6150
21
660
31
0
0
LINE
8
MEMBERS
10
6150
20
660
30
0
11
6130
21
660
31
0
0
LINE
8
MEMBERS
10
6130
20
660
30
0
11
6130
21
640
31
0
0
LINE
8
MEMBERS
10
6130
20
40
30
0
11
6150
21
40
31
0
0
LINE
8
MEMBERS
10
6150
20
40
30
0
11
6150
21
60
31
0
0
LINE
8
MEMBERS
10
6150
20
60
30
0
11
6130
21
60
31
0
0
LINE
8
MEMBERS
10
6130
20
60
30
0
11
6130
21
40
31
0
0
LINE
8
MEMBERS
10
6730
20
640
30
0
11
6750
21
640
31
0
0
LINE
8
MEMBERS
10
6750
20
640
30
0
11
6750
21
660
31
0
0
LINE
8
MEMBERS
10
6750
20
660
30
0
11
6730
21
660
31
0
0
LINE
8
MEMBERS
10
6730
20
660
30
0
11
6730
21
640
31
0
0
LINE
8
MEMBERS
10
6730
20
40
30
0
11
6750
21
40
31
0
0
LINE
8
MEMBERS
10
6750
20
40
30
0
11
6750
21
60
31
0
0
LINE
8
MEMBERS
10
6750
20
60
30
0
11
6730
21
60
31
0
0
LINE
8
MEMBERS
10
6730
20
60
30
0
11
6730
21
40
31
0
0
LINE
8
MEMBERS
10
7330
20
640
30
0
11
7350
21
640
31
0
0
LINE
8
MEMBERS
10
7350
20
640
30
0
11
7350
21
660
31
0
0
LINE
8
MEMBERS
10
7350
20
660
30
0
11
7330
21
660
31
0
0
LINE
8
MEMBERS
10
7330
20
660
30
0
11
7330
21
640
31
0
0
LINE
8
MEMBERS
10
7330
20
40
30
0
11
7350
21
40
31
0
0
LINE
8
MEMBERS
10
7350
20
40
30
0
11
7350
21
60
31
0
0
LINE
8
MEMBERS
10
7350
20
60
30
0
11
7330
21
60
31
0
0
LINE
8
MEMBERS
10
7330
20
60
30
0
11
7330
21
40
31
0
0
LINE
8
MEMBERS
10
4320
20
620
30
0
11
7960
21
620
31
0
0
LINE
8
MEMBERS
10
7960
20
620
30
0
11
7960
21
660
31
0
0
LINE
8
MEMBERS
10
7960
20
660
30
0
11
4320
21
660
31
0
0
LINE
8
MEMBERS
10
4320
20
660
30
0
11
4320
21
620
31
0
0
LINE
8
MEMBERS
10
4320
20
20
30
0
11
7960
21
20
31
0
0
LINE
8
MEMBERS
10
7960
20
20
30
0
11
7960
21
60
31
0
0
LINE
8
MEMBERS
10
7960
20
60
30
0
11
4320
21
60
31
0
0
LINE
8
MEMBERS
10
4320
20
60
30
0
11
4320
21
20
31
0
0
LINE
8
MEMBERS
10
4320
20
60
30
0
11
4340
21
60
31
0
0
LINE
8
MEMBERS
10
4340
20
60
30
0
11
4340
21
640
31
0
0
LINE
8
MEMBERS
10
4340
20
640
30
0
11
4320
21
640
31
0
0
LINE
8
MEMBERS
10
4320
20
640
30
0
11
4320
21
60
31
0
0
LINE
8
MEMBERS
10
4930
20
60
30
0
11
4950
21
60
31
0
0
LINE
8
MEMBERS
10
4950
20
60
30
0
11
4950
21
640
31
0
0
LINE
8
MEMBERS
10
4950
20
640
30
0
11
4930
21
640
31
0
0
LINE
8
MEMBERS
10
4930
20
640
30
0
11
4930
21
60
31
0
0
LINE
8
MEMBERS
10
5530
20
60
30
0
11
5550
21
60
31
0
0
LINE
8
MEMBERS
10
5550
20
60
30
0
11
5550
21
640
31
0
0
LINE
8
MEMBERS
10
5550
20
640
30
0
11
5530
21
640
31
0
0
LINE
8
MEMBERS
10
5530
20
640
30
0
11
5530
21
60
31
0
0
LINE
8
MEMBERS
10
6130
20
60
30
0
11
6150
21
60
31
0
0
LINE
8
MEMBERS
10
6150
20
60
30
0
11
6150
21
640
31
0
0
LINE
8
MEMBERS
10
6150
20
640
30
0
11
6130
21
640
31
0
0
LINE
8
MEMBERS
10
6130
20
640
30
0
11
6130
21
60
31
0
0
LINE
8
MEMBERS
10
6730
20
60
30
0
11
6750
21
60
31
0
0
LINE
8
MEMBERS
10
6750
20
60
30
0
11
6750
21
640
31
0
0
LINE
8
MEMBERS
10
6750
20
640
30
0
11
6730
21
640
31
0
0
LINE
8
MEMBERS
10
6730
20
640
30
0
11
6730
21
60
31
0
0
LINE
8
MEMBERS
10
7330
20
60
30
0
11
7350
21
60
31
0
0
LINE
8
MEMBERS
10
7350
20
60
30
0
11
7350
21
640
31
0
0
LINE
8
MEMBERS
10
7350
20
640
30
0
11
7330
21
640
31
0
0
LINE
8
MEMBERS
10
7330
20
640
30
0
11
7330
21
60
31
0
0
LINE
8
MEMBERS
10
7920
20
60
30
0
11
7940
21
60
31
0
0
LINE
8
MEMBERS
10
7940
20
60
30
0
11
7940
21
640
31
0
0
LINE
8
MEMBERS
10
7940
20
640
30
0
11
7920
21
640
31
0
0
LINE
8
MEMBERS
10
7920
20
640
30
0
11
7920
21
60
31
0
0
LINE
8
MEMBERS
10
4320
20
60
30
0
11
4360
21
60
31
0
0
LINE
8
MEMBERS
10
4360
20
60
30
0
11
4360
21
620
31
0
0
LINE
8
MEMBERS
10
4360
20
620
30
0
11
4320
21
620
31
0
0
LINE
8
MEMBERS
10
4320
20
620
30
0
11
4320
21
60
31
0
0
LINE
8
MEMBERS
10
4930
20
60
30
0
11
4950
21
60
31
0
0
LINE
8
MEMBERS
10
4950
20
60
30
0
11
4950
21
620
31
0
0
LINE
8
MEMBERS
10
4950
20
620
30
0
11
4930
21
620
31
0
0
LINE
8
MEMBERS
10
4930
20
620
30
0
11
4930
21
60
31
0
0
LINE
8
MEMBERS
10
5530
20
60
30
0
11
5550
21
60
31
0
0
LINE
8
MEMBERS
10
5550
20
60
30
0
11
5550
21
620
31
0
0
LINE
8
MEMBERS
10
5550
20
620
30
0
11
5530
21
620
31
0
0
LINE
8
MEMBERS
10
5530
20
620
30
0
11
5530
21
60
31
0
0
LINE
8
MEMBERS
10
6130
20
60
30
0
11
6150
21
60
31
0
0
LINE
8
MEMBERS
10
6150
20
60
30
0
11
6150
21
620
31
0
0
LINE
8
MEMBERS
10
6150
20
620
30
0
11
6130
21
620
31
0
0
LINE
8
MEMBERS
10
6130
20
620
30
0
11
6130
21
60
31
0
0
LINE
8
MEMBERS
10
6730
20
60
30
0
11
6750
21
60
31
0
0
LINE
8
MEMBERS
10
6750
20
60
30
0
11
6750
21
620
31
0
0
LINE
8
MEMBERS
10
6750
20
620
30
0
11
6730
21
620
31
0
0
LINE
8
MEMBERS
10
6730
20
620
30
0
11
6730
21
60
31
0
0
LINE
8
MEMBERS
10
7330
20
60
30
0
11
7350
21
60
31
0
0
LINE
8
MEMBERS
10
7350
20
60
30
0
11
7350
21
620
31
0
0
LINE
8
MEMBERS
10
7350
20
620
30
0
11
7330
21
620
31
0
0
LINE
8
MEMBERS
10
7330
20
620
30
0
11
7330
21
60
31
0
0
LINE
8
MEMBERS
10
7920
20
60
30
0
11
7960
21
60
31
0
0
LINE
8
MEMBERS
10
7960
20
60
30
0
11
7960
21
620
31
0
0
LINE
8
MEMBERS
10
7960
20
620
30
0
11
7920
21
620
31
0
0
LINE
8
MEMBERS
10
7920
20
620
30
0
11
7920
21
60
31
0
0
LINE
8
MEMBERS
10
4330
20
640
30
0
11
7950
21
640
31
0
0
LINE
8
MEMBERS
10
7950
20
640
30
0
11
7950
21
660
31
0
0
LINE
8
MEMBERS
10
7950
20
660
30
0
11
4330
21
660
31
0
0
LINE
8
MEMBERS
10
4330
20
660
30
0
11
4330
21
640
31
0
0
LINE
8
MEMBERS
10
4330
20
290
30
0
11
7950
21
290
31
0
0
LINE
8
MEMBERS
10
7950
20
290
30
0
11
7950
21
310
31
0
0
LINE
8
MEMBERS
10
7950
20
310
30
0
11
4330
21
310
31
0
0
LINE
8
MEMBERS
10
4330
20
310
30
0
11
4330
21
290
31
0
0
LINE
8
MEMBERS
10
4330
20
640
30
0
11
4350
21
640
31
0
0
LINE
8
MEMBERS
10
4350
20
640
30
0
11
4350
21
660
31
0
0
LINE
8
MEMBERS
10
4350
20
660
30
0
11
4330
21
660
31
0
0
LINE
8
MEMBERS
10
4330
20
660
30
0
11
4330
21
640
31
0
0
LINE
8
MEMBERS
10
4330
20
290
30
0
11
4350
21
290
31
0
0
LINE
8
MEMBERS
10
4350
20
290
30
0
11
4350
21
310
31
0
0
LINE
8
MEMBERS
10
4350
20
310
30
0
11
4330
21
310
31
0
0
LINE
8
MEMBERS
10
4330
20
310
30
0
11
4330
21
290
31
0
0
LINE
8
MEMBERS
10
4930
20
640
30
0
11
4950
21
640
31
0
0
LINE
8
MEMBERS
10
4950
20
640
30
0
11
4950
21
660
31
0
0
LINE
8
MEMBERS
10
4950
20
660
30
0
11
4930
21
660
31
0
0
LINE
8
MEMBERS
10
4930
20
660
30
0
11
4930
21
640
31
0
0
LINE
8
MEMBERS
10
4930
20
290
30
0
11
4950
21
290
31
0
0
LINE
8
MEMBERS
10
4950
20
290
30
0
11
4950
21
310
31
0
0
LINE
8
MEMBERS
10
4950
20
310
30
0
11
4930
21
310
31
0
0
LINE
8
MEMBERS
10
4930
20
310
30
0
11
4930
21
290
31
0
0
LINE
8
MEMBERS
10
5530
20
640
30
0
11
5550
21
640
31
0
0
LINE
8
MEMBERS
10
5550
20
640
30
0
11
5550
21
660
31
0
0
LINE
8
MEMBERS
10
5550
20
660
30
0
11
5530
21
660
31
0
0
LINE
8
MEMBERS
10
5530
20
660
30
0
11
5530
21
640
31
0
0
LINE
8
MEMBERS
10
5530
20
290
30
0
11
5550
21
290
31
0
0
LINE
8
MEMBERS
10
5550
20
290
30
0
11
5550
21
310
31
0
0
LINE
8
MEMBERS
10
5550
20
310
30
0
11
5530
21
310
31
0
0
LINE
8
MEMBERS
10
5530
20
310
30
0
11
5530
21
290
31
0
0
LINE
8
MEMBERS
10
6130
20
640
30
0
11
6150
21
640
31
0
0
LINE
8
MEMBERS
10
6150
20
640
30
0
11
6150
21
660
31
0
0
LINE
8
MEMBERS
10
6150
20
660
30
0
11
6130
21
660
31
0
0
LINE
8
MEMBERS
10
6130
20
660
30
0
11
6130
21
640
31
0
0
LINE
8
MEMBERS
10
6130
20
290
30
0
11
6150
21
290
31
0
0
LINE
8
MEMBERS
10
6150
20
290
30
0
11
6150
21
310
31
0
0
LINE
8
MEMBERS
10
6150
20
310
30
0
11
6130
21
310
31
0
0
LINE
8
MEMBERS
10
6130
20
310
30
0
11
6130
21
290
31
0
0
LINE
8
MEMBERS
10
6730
20
640
30
0
11
6750
21
640
31
0
0
LINE
8
MEMBERS
10
6750
20
640
30
0
11
6750
21
660
31
0
0
LINE
8
MEMBERS
10
6750
20
660
30
0
11
6730
21
660
31
0
0
LINE
8
MEMBERS
10
6730
20
660
30
0
11
6730
21
640
31
0
0
LINE
8
MEMBERS
10
6730
20
290
30
0
11
6750
21
290
31
0
0
LINE
8
MEMBERS
10
6750
20
290
30
0
11
6750
21
310
31
0
0
LINE
8
MEMBERS
10
6750
20
310
30
0
11
6730
21
310
31
0
0
LINE
8
MEMBERS
10
6730
20
310
30
0
11
6730
21
290
31
0
0
LINE
8
MEMBERS
10
7330
20
640
30
0
11
7350
21
640
31
0
0
LINE
8
MEMBERS
10
7350
20
640
30
0
11
7350
21
660
31
0
0
LINE
8
MEMBERS
10
7350
20
660
30
0
11
7330
21
660
31
0
0
LINE
8
MEMBERS
10
7330
20
660
30
0
11
7330
21
640
31
0
0
LINE
8
MEMBERS
10
7330
20
290
30
0
11
7350
21
290
31
0
0
LINE
8
MEMBERS
10
7350
20
290
30
0
11
7350
21
310
31
0
0
LINE
8
MEMBERS
10
7350
20
310
30
0
11
7330
21
310
31
0
0
LINE
8
MEMBERS
10
7330
20
310
30
0
11
7330
21
290
31
0
0
LINE
8
MEMBERS
10
7930
20
640
30
0
11
7950
21
640
31
0
0
LINE
8
MEMBERS
10
7950
20
640
30
0
11
7950
21
660
31
0
0
LINE
8
MEMBERS
10
7950
20
660
30
0
11
7930
21
660
31
0
0
LINE
8
MEMBERS
10
7930
20
660
30
0
11
7930
21
640
31
0
0
LINE
8
MEMBERS
10
7930
20
290
30
0
11
7950
21
290
31
0
0
LINE
8
MEMBERS
10
7950
20
290
30
0
11
7950
21
310
31
0
0
LINE
8
MEMBERS
10
7950
20
310
30
0
11
7930
21
310
31
0
0
LINE
8
MEMBERS
10
7930
20
310
30
0
11
7930
21
290
31
0
0
LINE
8
MEMBERS
10
4330
20
640
30
0
11
7950
21
640
31
0
0
LINE
8
MEMBERS
10
7950
20
640
30
0
11
7950
21
660
31
0
0
LINE
8
MEMBERS
10
7950
20
660
30
0
11
4330
21
660
31
0
0
LINE
8
MEMBERS
10
4330
20
660
30
0
11
4330
21
640
31
0
0
LINE
8
MEMBERS
10
4330
20
290
30
0
11
7950
21
290
31
0
0
LINE
8
MEMBERS
10
7950
20
290
30
0
11
7950
21
310
31
0
0
LINE
8
MEMBERS
10
7950
20
310
30
0
11
4330
21
310
31
0
0
LINE
8
MEMBERS
10
4330
20
310
30
0
11
4330
21
290
31
0
0
LINE
8
MEMBERS
10
4330
20
310
30
0
11
4350
21
310
31
0
0
LINE
8
MEMBERS
10
4350
20
310
30
0
11
4350
21
640
31
0
0
LINE
8
MEMBERS
10
4350
20
640
30
0
11
4330
21
640
31
0
0
LINE
8
MEMBERS
10
4330
20
640
30
0
11
4330
21
310
31
0
0
LINE
8
MEMBERS
10
4330
20
310
30
0
11
4350
21
310
31
0
0
LINE
8
MEMBERS
10
4350
20
310
30
0
11
4350
21
640
31
0
0
LINE
8
MEMBERS
10
4350
20
640
30
0
11
4330
21
640
31
0
0
LINE
8
MEMBERS
10
4330
20
640
30
0
11
4330
21
310
31
0
0
LINE
8
MEMBERS
10
4930
20
310
30
0
11
4950
21
310
31
0
0
LINE
8
MEMBERS
10
4950
20
310
30
0
11
4950
21
640
31
0
0
LINE
8
MEMBERS
10
4950
20
640
30
0
11
4930
21
640
31
0
0
LINE
8
MEMBERS
10
4930
20
640
30
0
11
4930
21
310
31
0
0
LINE
8
MEMBERS
10
4930
20
310
30
0
11
4950
21
310
31
0
0
LINE
8
MEMBERS
10
4950
20
310
30
0
11
4950
21
640
31
0
0
LINE
8
MEMBERS
10
4950
20
640
30
0
11
4930
21
640
31
0
0
LINE
8
MEMBERS
10
4930
20
640
30
0
11
4930
21
310
31
0
0
LINE
8
MEMBERS
10
5530
20
310
30
0
11
5550
21
310
31
0
0
LINE
8
MEMBERS
10
5550
20
310
30
0
11
5550
21
640
31
0
0
LINE
8
MEMBERS
10
5550
20
640
30
0
11
5530
21
640
31
0
0
LINE
8
MEMBERS
10
5530
20
640
30
0
11
5530
21
310
31
0
0
LINE
8
MEMBERS
10
5530
20
310
30
0
11
5550
21
310
31
0
0
LINE
8
MEMBERS
10
5550
20
310
30
0
11
5550
21
640
31
0
0
LINE
8
MEMBERS
10
5550
20
640
30
0
11
5530
21
640
31
0
0
LINE
8
MEMBERS
10
5530
20
640
30
0
11
5530
21
310
31
0
0
LINE
8
MEMBERS
10
6130
20
310
30
0
11
6150
21
310
31
0
0
LINE
8
MEMBERS
10
6150
20
310
30
0
11
6150
21
640
31
0
0
LINE
8
MEMBERS
10
6150
20
640
30
0
11
6130
21
640
31
0
0
LINE
8
MEMBERS
10
6130
20
640
30
0
11
6130
21
310
31
0
0
LINE
8
MEMBERS
10
6130
20
310
30
0
11
6150
21
310
31
0
0
LINE
8
MEMBERS
10
6150
20
310
30
0
11
6150
21
640
31
0
0
LINE
8
MEMBERS
10
6150
20
640
30
0
11
6130
21
640
31
0
0
LINE
8
MEMBERS
10
6130
20
640
30
0
11
6130
21
310
31
0
0
LINE
8
MEMBERS
10
6730
20
310
30
0
11
6750
21
310
31
0
0
LINE
8
MEMBERS
10
6750
20
310
30
0
11
6750
21
640
31
0
0
LINE
8
MEMBERS
10
6750
20
640
30
0
11
6730
21
640
31
0
0
LINE
8
MEMBERS
10
6730
20
640
30
0
11
6730
21
310
31
0
0
LINE
8
MEMBERS
10
6730
20
310
30
0
11
6750
21
310
31
0
0
LINE
8
MEMBERS
10
6750
20
310
30
0
11
6750
21
640
31
0
0
LINE
8
MEMBERS
10
6750
20
640
30
0
11
6730
21
640
31
0
0
LINE
8
MEMBERS
10
6730
20
640
30
0
11
6730
21
310
31
0
0
LINE
8
MEMBERS
10
7330
20
310
30
0
11
7350
21
310
31
0
0
LINE
8
MEMBERS
10
7350
20
310
30
0
11
7350
21
640
31
0
0
LINE
8
MEMBERS
10
7350
20
640
30
0
11
7330
21
640
31
0
0
LINE
8
MEMBERS
10
7330
20
640
30
0
11
7330
21
310
31
0
0
LINE
8
MEMBERS
10
7330
20
310
30
0
11
7350
21
310
31
0
0
LINE
8
MEMBERS
10
7350
20
310
30
0
11
7350
21
640
31
0
0
LINE
8
MEMBERS
10
7350
20
640
30
0
11
7330
21
640
31
0
0
LINE
8
MEMBERS
10
7330
20
640
30
0
11
7330
21
310
31
0
0
LINE
8
MEMBERS
10
7930
20
310
30
0
11
7950
21
310
31
0
0
LINE
8
MEMBERS
10
7950
20
310
30
0
11
7950
21
640
31
0
0
LINE
8
MEMBERS
10
7950
20
640
30
0
11
7930
21
640
31
0
0
LINE
8
MEMBERS
10
7930
20
640
30
0
11
7930
21
310
31
0
0
LINE
8
MEMBERS
10
7930
20
310
30
0
11
7950
21
310
31
0
0
LINE
8
MEMBERS
10
7950
20
310
30
0
11
7950
21
640
31
0
0
LINE
8
MEMBERS
10
7950
20
640
30
0
11
7930
21
640
31
0
0
LINE
8
MEMBERS
10
7930
20
640
30
0
11
7930
21
310
31
0
0
LINE
8
MEMBERS
10
4320
20
60
30
0
11
4360
21
60
31
0
0
LINE
8
MEMBERS
10
4360
20
60
30
0
11
4360
21
620
31
0
0
LINE
8
MEMBERS
10
4360
20
620
30
0
11
4320
21
620
31
0
0
LINE
8
MEMBERS
10
4320
20
620
30
0
11
4320
21
60
31
0
0
LINE
8
MEMBERS
10
4930
20
60
30
0
11
4950
21
60
31
0
0
LINE
8
MEMBERS
10
4950
20
60
30
0
11
4950
21
640
31
0
0
LINE
8
MEMBERS
10
4950
20
640
30
0
11
4930
21
640
31
0
0
LINE
8
MEMBERS
10
4930
20
640
30
0
11
4930
21
60
31
0
0
LINE
8
MEMBERS
10
5530
20
60
30
0
11
5550
21
60
31
0
0
LINE
8
MEMBERS
10
5550
20
60
30
0
11
5550
21
640
31
0
0
LINE
8
MEMBERS
10
5550
20
640
30
0
11
5530
21
640
31
0
0
LINE
8
MEMBERS
10
5530
20
640
30
0
11
5530
21
60
31
0
0
LINE
8
MEMBERS
10
6730
20
60
30
0
11
6750
21
60
31
0
0
LINE
8
MEMBERS
10
6750
20
60
30
0
11
6750
21
640
31
0
0
LINE
8
MEMBERS
10
6750
20
640
30
0
11
6730
21
640
31
0
0
LINE
8
MEMBERS
10
6730
20
640
30
0
11
6730
21
60
31
0
0
LINE
8
MEMBERS
10
7330
20
60
30
0
11
7350
21
60
31
0
0
LINE
8
MEMBERS
10
7350
20
60
30
0
11
7350
21
640
31
0
0
LINE
8
MEMBERS
10
7350
20
640
30
0
11
7330
21
640
31
0
0
LINE
8
MEMBERS
10
7330
20
640
30
0
11
7330
21
60
31
0
0
LINE
8
MEMBERS
10
7920
20
60
30
0
11
7960
21
60
31
0
0
LINE
8
MEMBERS
10
7960
20
60
30
0
11
7960
21
620
31
0
0
LINE
8
MEMBERS
10
7960
20
620
30
0
11
7920
21
620
31
0
0
LINE
8
MEMBERS
10
7920
20
620
30
0
11
7920
21
60
31
0
0
LINE
8
MEMBERS
10
4330
20
310
30
0
11
4350
21
310
31
0
0
LINE
8
MEMBERS
10
4350
20
310
30
0
11
4350
21
640
31
0
0
LINE
8
MEMBERS
10
4350
20
640
30
0
11
4330
21
640
31
0
0
LINE
8
MEMBERS
10
4330
20
640
30
0
11
4330
21
310
31
0
0
LINE
8
MEMBERS
10
4930
20
310
30
0
11
4950
21
310
31
0
0
LINE
8
MEMBERS
10
4950
20
310
30
0
11
4950
21
640
31
0
0
LINE
8
MEMBERS
10
4950
20
640
30
0
11
4930
21
640
31
0
0
LINE
8
MEMBERS
10
4930
20
640
30
0
11
4930
21
310
31
0
0
LINE
8
MEMBERS
10
5530
20
310
30
0
11
5550
21
310
31
0
0
LINE
8
MEMBERS
10
5550
20
310
30
0
11
5550
21
640
31
0
0
LINE
8
MEMBERS
10
5550
20
640
30
0
11
5530
21
640
31
0
0
LINE
8
MEMBERS
10
5530
20
640
30
0
11
5530
21
310
31
0
0
LINE
8
MEMBERS
10
6730
20
310
30
0
11
6750
21
310
31
0
0
LINE
8
MEMBERS
10
6750
20
310
30
0
11
6750
21
640
31
0
0
LINE
8
MEMBERS
10
6750
20
640
30
0
11
6730
21
640
31
0
0
LINE
8
MEMBERS
10
6730
20
640
30
0
11
6730
21
310
31
0
0
LINE
8
MEMBERS
10
7330
20
310
30
0
11
7350
21
310
31
0
0
LINE
8
MEMBERS
10
7350
20
310
30
0
11
7350
21
640
31
0
0
LINE
8
MEMBERS
10
7350
20
640
30
0
11
7330
21
640
31
0
0
LINE
8
MEMBERS
10
7330
20
640
30
0
11
7330
21
310
31
0
0
LINE
8
MEMBERS
10
7930
20
310
30
0
11
7950
21
310
31
0
0
LINE
8
MEMBERS
10
7950
20
310
30
0
11
7950
21
640
31
0
0
LINE
8
MEMBERS
10
7950
20
640
30
0
11
7930
21
640
31
0
0
LINE
8
MEMBERS
10
7930
20
640
30
0
11
7930
21
310
31
0
0
LINE
8
BOARDS
10
4351
20
31
30
0
11
4939
21
31
31
0
0
LINE
8
BOARDS
10
4939
20
31
30
0
11
4939
21
659
31
0
0
LINE
8
BOARDS
10
4939
20
659
30
0
11
4351
21
659
31
0
0
LINE
8
BOARDS
10
4351
20
659
30
0
11
4351
21
31
31
0
0
LINE
8
BOARDS
10
4941
20
41
30
0
11
5539
21
41
31
0
0
LINE
8
BOARDS
10
5539
20
41
30
0
11
5539
21
659
31
0
0
LINE
8
BOARDS
10
5539
20
659
30
0
11
4941
21
659
31
0
0
LINE
8
BOARDS
10
4941
20
659
30
0
11
4941
21
41
31
0
0
LINE
8
BOARDS
10
6741
20
41
30
0
11
7339
21
41
31
0
0
LINE
8
BOARDS
10
7339
20
41
30
0
11
7339
21
659
31
0
0
LINE
8
BOARDS
10
7339
20
659
30
0
11
6741
21
659
31
0
0
LINE
8
BOARDS
10
6741
20
659
30
0
11
6741
21
41
31
0
0
LINE
8
BOARDS
10
7341
20
31
30
0
11
7929
21
31
31
0
0
LINE
8
BOARDS
10
7929
20
31
30
0
11
7929
21
659
31
0
0
LINE
8
BOARDS
10
7929
20
659
30
0
11
7341
21
659
31
0
0
LINE
8
BOARDS
10
7341
20
659
30
0
11
7341
21
31
31
0
0
LINE
8
BOARDS
10
4341
20
291
30
0
11
4939
21
291
31
0
0
LINE
8
BOARDS
10
4939
20
291
30
0
11
4939
21
659
31
0
0
LINE
8
BOARDS
10
4939
20
659
30
0
11
4341
21
659
31
0
0
LINE
8
BOARDS
10
4341
20
659
30
0
11
4341
21
291
31
0
0
LINE
8
BOARDS
10
4941
20
291
30
0
11
5539
21
291
31
0
0
LINE
8
BOARDS
10
5539
20
291
30
0
11
5539
21
659
31
0
0
LINE
8
BOARDS
10
5539
20
659
30
0
11
4941
21
659
31
0
0
LINE
8
BOARDS
10
4941
20
659
30
0
11
4941
21
291
31
0
0
LINE
8
BOARDS
10
6741
20
291
30
0
11
7339
21
291
31
0
0
LINE
8
BOARDS
10
7339
20
291
30
0
11
7339
21
659
31
0
0
LINE
8
BOARDS
10
7339
20
659
30
0
11
6741
21
659
31
0
0
LINE
8
BOARDS
10
6741
20
659
30
0
11
6741
21
291
31
0
0
LINE
8
BOARDS
10
7341
20
291
30
0
11
7939
21
291
31
0
0
LINE
8
BOARDS
10
7939
20
291
30
0
11
7939
21
659
31
0
0
LINE
8
BOARDS
10
7939
20
659
30
0
11
7341
21
659
31
0
0
LINE
8
BOARDS
10
7341
20
659
30
0
11
7341
21
291
31
0
0
LINE
8
FITTINGS
10
4360
20
0
30
0
11
4910
21
0
31
0
0
LINE
8
FITTINGS
10
4910
20
0
30
0
11
4910
21
640
31
0
0
LINE
8
FITTINGS
10
4910
20
640
30
0
11
4360
21
640
31
0
0
LINE
8
FITTINGS
10
4360
20
640
30
0
11
4360
21
0
31
0
0
LINE
8
FITTINGS
10
4950
20
10
30
0
11
5530
21
10
31
0
0
LINE
8
FITTINGS
10
5530
20
10
30
0
11
5530
21
650
31
0
0
LINE
8
FITTINGS
10
5530
20
650
30
0
11
4950
21
650
31
0
0
LINE
8
FITTINGS
10
4950
20
650
30
0
11
4950
21
10
31
0
0
LINE
8
FITTINGS
10
6750
20
10
30
0
11
7330
21
10
31
0
0
LINE
8
FITTINGS
10
7330
20
10
30
0
11
7330
21
650
31
0
0
LINE
8
FITTINGS
10
7330
20
650
30
0
11
6750
21
650
31
0
0
LINE
8
FITTINGS
10
6750
20
650
30
0
11
6750
21
10
31
0
0
LINE
8
FITTINGS
10
7370
20
0
30
0
11
7920
21
0
31
0
0
LINE
8
FITTINGS
10
7920
20
0
30
0
11
7920
21
640
31
0
0
LINE
8
FITTINGS
10
7920
20
640
30
0
11
7370
21
640
31
0
0
LINE
8
FITTINGS
10
7370
20
640
30
0
11
7370
21
0
31
0
0
LINE
8
FITTINGS
10
4350
20
10
30
0
11
4930
21
10
31
0
0
LINE
8
FITTINGS
10
4930
20
10
30
0
11
4930
21
650
31
0
0
LINE
8
FITTINGS
10
4930
20
650
30
0
11
4350
21
650
31
0
0
LINE
8
FITTINGS
10
4350
20
650
30
0
11
4350
21
10
31
0
0
LINE
8
FITTINGS
10
7350
20
10
30
0
11
7930
21
10
31
0
0
LINE
8
FITTINGS
10
7930
20
10
30
0
11
7930
21
650
31
0
0
LINE
8
FITTINGS
10
7930
20
650
30
0
11
7350
21
650
31
0
0
LINE
8
FITTINGS
10
7350
20
650
30
0
11
7350
21
10
31
0
0
LINE
8
FITTINGS
10
6150
20
60
30
0
11
6730
21
60
31
0
0
LINE
8
FITTINGS
10
6730
20
60
30
0
11
6730
21
640
31
0
0
LINE
8
FITTINGS
10
6730
20
640
30
0
11
6150
21
640
31
0
0
LINE
8
FITTINGS
10
6150
20
640
30
0
11
6150
21
60
31
0
0
LINE
8
FITTINGS
10
6150
20
60
30
0
11
6730
21
60
31
0
0
LINE
8
FITTINGS
10
6730
20
60
30
0
11
6730
21
640
31
0
0
LINE
8
FITTINGS
10
6730
20
640
30
0
11
6150
21
640
31
0
0
LINE
8
FITTINGS
10
6150
20
640
30
0
11
6150
21
60
31
0
0
LINE
8
DIMS
10
4320
20
0
30
0
11
4320
21
-160
31
0
0
LINE
8
DIMS
10
7960
20
0
30
0
11
7960
21
-160
31
0
0
LINE
8
DIMS
10
4320
20
-140
30
0
11
7960
21
-140
31
0
0
TEXT
8
DIMS
10
6068
20
-220
30
0
40
60
1
3640
0
LINE
8
DIMS
10
7960
20
0
30
0
11
8120
21
0
31
0
0
LINE
8
DIMS
10
7960
20
660
30
0
11
8120
21
660
31
0
0
LINE
8
DIMS
10
8100
20
0
30
0
11
8100
21
660
31
0
0
TEXT
8
DIMS
10
8130
20
300
30
0
40
60
1
660
0
TEXT
8
TEXT
10
4320
20
720
30
0
40
60
1
TOP (X-Z)
0
LINE
8
MEMBERS
10
9280
20
0
30
0
11
9300
21
0
31
0
0
LINE
8
MEMBERS
10
9300
20
0
30
0
11
9300
21
40
31
0
0
LINE
8
MEMBERS
10
9300
20
40
30
0
11
9280
21
40
31
0
0
LINE
8
MEMBERS
10
9280
20
40
30
0
11
9280
21
0
31
0
0
LINE
8
MEMBERS
10
8680
20
0
30
0
11
8700
21
0
31
0
0
LINE
8
MEMBERS
10
8700
20
0
30
0
11
8700
21
40
31
0
0
LINE
8
MEMBERS
10
8700
20
40
30
0
11
8680
21
40
31
0
0
LINE
8
MEMBERS
10
8680
20
40
30
0
11
8680
21
0
31
0
0
LINE
8
MEMBERS
10
9260
20
40
30
0
11
9300
21
40
31
0
0
LINE
8
MEMBERS
10
9300
20
40
30
0
11
9300
21
890
31
0
0
LINE
8
MEMBERS
10
9300
20
890
30
0
11
9260
21
890
31
0
0
LINE
8
MEMBERS
10
9260
20
890
30
0
11
9260
21
40
31
0
0
LINE
8
MEMBERS
10
9260
20
40
30
0
11
9300
21
40
31
0
0
LINE
8
MEMBERS
10
9300
20
40
30
0
11
9300
21
890
31
0
0
LINE
8
MEMBERS
10
9300
20
890
30
0
11
9260
21
890
31
0
0
LINE
8
MEMBERS
10
9260
20
890
30
0
11
9260
21
40
31
0
0
LINE
8
MEMBERS
10
8660
20
40
30
0
11
8700
21
40
31
0
0
LINE
8
MEMBERS
10
8700
20
40
30
0
11
8700
21
890
31
0
0
LINE
8
MEMBERS
10
8700
20
890
30
0
11
8660
21
890
31
0
0
LINE
8
MEMBERS
10
8660
20
890
30
0
11
8660
21
40
31
0
0
LINE
8
MEMBERS
10
8660
20
40
30
0
11
8700
21
40
31
0
0
LINE
8
MEMBERS
10
8700
20
40
30
0
11
8700
21
890
31
0
0
LINE
8
MEMBERS
10
8700
20
890
30
0
11
8660
21
890
31
0
0
LINE
8
MEMBERS
10
8660
20
890
30
0
11
8660
21
40
31
0
0
LINE
8
MEMBERS
10
9280
20
40
30
0
11
9300
21
40
31
0
0
LINE
8
MEMBERS
10
9300
20
40
30
0
11
9300
21
890
31
0
0
LINE
8
MEMBERS
10
9300
20
890
30
0
11
9280
21
890
31
0
0
LINE
8
MEMBERS
10
9280
20
890
30
0
11
9280
21
40
31
0
0
LINE
8
MEMBERS
10
8680
20
40
30
0
11
8700
21
40
31
0
0
LINE
8
MEMBERS
10
8700
20
40
30
0
11
8700
21
890
31
0
0
LINE
8
MEMBERS
10
8700
20
890
30
0
11
8680
21
890
31
0
0
LINE
8
MEMBERS
10
8680
20
890
30
0
11
8680
21
40
31
0
0
LINE
8
MEMBERS
10
9280
20
40
30
0
11
9300
21
40
31
0
0
LINE
8
MEMBERS
10
9300
20
40
30
0
11
9300
21
890
31
0
0
LINE
8
MEMBERS
10
9300
20
890
30
0
11
9280
21
890
31
0
0
LINE
8
MEMBERS
10
9280
20
890
30
0
11
9280
21
40
31
0
0
LINE
8
MEMBERS
10
8680
20
40
30
0
11
8700
21
40
31
0
0
LINE
8
MEMBERS
10
8700
20
40
30
0
11
8700
21
890
31
0
0
LINE
8
MEMBERS
10
8700
20
890
30
0
11
8680
21
890
31
0
0
LINE
8
MEMBERS
10
8680
20
890
30
0
11
8680
21
40
31
0
0
LINE
8
MEMBERS
10
9280
20
40
30
0
11
9300
21
40
31
0
0
LINE
8
MEMBERS
10
9300
20
40
30
0
11
9300
21
890
31
0
0
LINE
8
MEMBERS
10
9300
20
890
30
0
11
9280
21
890
31
0
0
LINE
8
MEMBERS
10
9280
20
890
30
0
11
9280
21
40
31
0
0
LINE
8
MEMBERS
10
8680
20
40
30
0
11
8700
21
40
31
0
0
LINE
8
MEMBERS
10
8700
20
40
30
0
11
8700
21
890
31
0
0
LINE
8
MEMBERS
10
8700
20
890
30
0
11
8680
21
890
31
0
0
LINE
8
MEMBERS
10
8680
20
890
30
0
11
8680
21
40
31
0
0
LINE
8
MEMBERS
10
9280
20
40
30
0
11
9300
21
40
31
0
0
LINE
8
MEMBERS
10
9300
20
40
30
0
11
9300
21
890
31
0
0
LINE
8
MEMBERS
10
9300
20
890
30
0
11
9280
21
890
31
0
0
LINE
8
MEMBERS
10
9280
20
890
30
0
11
9280
21
40
31
0
0
LINE
8
MEMBERS
10
8680
20
40
30
0
11
8700
21
40
31
0
0
LINE
8
MEMBERS
10
8700
20
40
30
0
11
8700
21
890
31
0
0
LINE
8
MEMBERS
10
8700
20
890
30
0
11
8680
21
890
31
0
0
LINE
8
MEMBERS
10
8680
20
890
30
0
11
8680
21
40
31
0
0
LINE
8
MEMBERS
10
9280
20
40
30
0
11
9300
21
40
31
0
0
LINE
8
MEMBERS
10
9300
20
40
30
0
11
9300
21
890
31
0
0
LINE
8
MEMBERS
10
9300
20
890
30
0
11
9280
21
890
31
0
0
LINE
8
MEMBERS
10
9280
20
890
30
0
11
9280
21
40
31
0
0
LINE
8
MEMBERS
10
8680
20
40
30
0
11
8700
21
40
31
0
0
LINE
8
MEMBERS
10
8700
20
40
30
0
11
8700
21
890
31
0
0
LINE
8
MEMBERS
10
8700
20
890
30
0
11
8680
21
890
31
0
0
LINE
8
MEMBERS
10
8680
20
890
30
0
11
8680
21
40
31
0
0
LINE
8
MEMBERS
10
9260
20
890
30
0
11
9300
21
890
31
0
0
LINE
8
MEMBERS
10
9300
20
890
30
0
11
9300
21
910
31
0
0
LINE
8
MEMBERS
10
9300
20
910
30
0
11
9260
21
910
31
0
0
LINE
8
MEMBERS
10
9260
20
910
30
0
11
9260
21
890
31
0
0
LINE
8
MEMBERS
10
8660
20
890
30
0
11
8700
21
890
31
0
0
LINE
8
MEMBERS
10
8700
20
890
30
0
11
8700
21
910
31
0
0
LINE
8
MEMBERS
10
8700
20
910
30
0
11
8660
21
910
31
0
0
LINE
8
MEMBERS
10
8660
20
910
30
0
11
8660
21
890
31
0
0
LINE
8
MEMBERS
10
8700
20
0
30
0
11
9280
21
0
31
0
0
LINE
8
MEMBERS
10
9280
20
0
30
0
11
9280
21
40
31
0
0
LINE
8
MEMBERS
10
9280
20
40
30
0
11
8700
21
40
31
0
0
LINE
8
MEMBERS
10
8700
20
40
30
0
11
8700
21
0
31
0
0
LINE
8
MEMBERS
10
8700
20
20
30
0
11
9280
21
20
31
0
0
LINE
8
MEMBERS
10
9280
20
20
30
0
11
9280
21
40
31
0
0
LINE
8
MEMBERS
10
9280
20
40
30
0
11
8700
21
40
31
0
0
LINE
8
MEMBERS
10
8700
20
40
30
0
11
8700
21
20
31
0
0
LINE
8
MEMBERS
10
8700
20
20
30
0
11
9280
21
20
31
0
0
LINE
8
MEMBERS
10
9280
20
20
30
0
11
9280
21
40
31
0
0
LINE
8
MEMBERS
10
9280
20
40
30
0
11
8700
21
40
31
0
0
LINE
8
MEMBERS
10
8700
20
40
30
0
11
8700
21
20
31
0
0
LINE
8
MEMBERS
10
8700
20
20
30
0
11
9280
21
20
31
0
0
LINE
8
MEMBERS
10
9280
20
20
30
0
11
9280
21
40
31
0
0
LINE
8
MEMBERS
10
9280
20
40
30
0
11
8700
21
40
31
0
0
LINE
8
MEMBERS
10
8700
20
40
30
0
11
8700
21
20
31
0
0
LINE
8
MEMBERS
10
8700
20
20
30
0
11
9280
21
20
31
0
0
LINE
8
MEMBERS
10
9280
20
20
30
0
11
9280
21
40
31
0
0
LINE
8
MEMBERS
10
9280
20
40
30
0
11
8700
21
40
31
0
0
LINE
8
MEMBERS
10
8700
20
40
30
0
11
8700
21
20
31
0
0
LINE
8
MEMBERS
10
8700
20
20
30
0
11
9280
21
20
31
0
0
LINE
8
MEMBERS
10
9280
20
20
30
0
11
9280
21
40
31
0
0
LINE
8
MEMBERS
10
9280
20
40
30
0
11
8700
21
40
31
0
0
LINE
8
MEMBERS
10
8700
20
40
30
0
11
8700
21
20
31
0
0
LINE
8
MEMBERS
10
8700
20
0
30
0
11
9280
21
0
31
0
0
LINE
8
MEMBERS
10
9280
20
0
30
0
11
9280
21
40
31
0
0
LINE
8
MEMBERS
10
9280
20
40
30
0
11
8700
21
40
31
0
0
LINE
8
MEMBERS
10
8700
20
40
30
0
11
8700
21
0
31
0
0
LINE
8
MEMBERS
10
8700
20
890
30
0
11
9260
21
890
31
0
0
LINE
8
MEMBERS
10
9260
20
890
30
0
11
9260
21
910
31
0
0
LINE
8
MEMBERS
10
9260
20
910
30
0
11
8700
21
910
31
0
0
LINE
8
MEMBERS
10
8700
20
910
30
0
11
8700
21
890
31
0
0
LINE
8
MEMBERS
10
8700
20
890
30
0
11
9260
21
890
31
0
0
LINE
8
MEMBERS
10
9260
20
890
30
0
11
9260
21
910
31
0
0
LINE
8
MEMBERS
10
9260
20
910
30
0
11
8700
21
910
31
0
0
LINE
8
MEMBERS
10
8700
20
910
30
0
11
8700
21
890
31
0
0
LINE
8
MEMBERS
10
8700
20
890
30
0
11
9260
21
890
31
0
0
LINE
8
MEMBERS
10
9260
20
890
30
0
11
9260
21
910
31
0
0
LINE
8
MEMBERS
10
9260
20
910
30
0
11
8700
21
910
31
0
0
LINE
8
MEMBERS
10
8700
20
910
30
0
11
8700
21
890
31
0
0
LINE
8
MEMBERS
10
8700
20
890
30
0
11
9260
21
890
31
0
0
LINE
8
MEMBERS
10
9260
20
890
30
0
11
9260
21
910
31
0
0
LINE
8
MEMBERS
10
9260
20
910
30
0
11
8700
21
910
31
0
0
LINE
8
MEMBERS
10
8700
20
910
30
0
11
8700
21
890
31
0
0
LINE
8
MEMBERS
10
8700
20
890
30
0
11
9260
21
890
31
0
0
LINE
8
MEMBERS
10
9260
20
890
30
0
11
9260
21
910
31
0
0
LINE
8
MEMBERS
10
9260
20
910
30
0
11
8700
21
910
31
0
0
LINE
8
MEMBERS
10
8700
20
910
30
0
11
8700
21
890
31
0
0
LINE
8
MEMBERS
10
8700
20
890
30
0
11
9260
21
890
31
0
0
LINE
8
MEMBERS
10
9260
20
890
30
0
11
9260
21
910
31
0
0
LINE
8
MEMBERS
10
9260
20
910
30
0
11
8700
21
910
31
0
0
LINE
8
MEMBERS
10
8700
20
910
30
0
11
8700
21
890
31
0
0
LINE
8
MEMBERS
10
8700
20
890
30
0
11
9260
21
890
31
0
0
LINE
8
MEMBERS
10
9260
20
890
30
0
11
9260
21
910
31
0
0
LINE
8
MEMBERS
10
9260
20
910
30
0
11
8700
21
910
31
0
0
LINE
8
MEMBERS
10
8700
20
910
30
0
11
8700
21
890
31
0
0
LINE
8
MEMBERS
10
9280
20
1480
30
0
11
9300
21
1480
31
0
0
LINE
8
MEMBERS
10
9300
20
1480
30
0
11
9300
21
1520
31
0
0
LINE
8
MEMBERS
10
9300
20
1520
30
0
11
9280
21
1520
31
0
0
LINE
8
MEMBERS
10
9280
20
1520
30
0
11
9280
21
1480
31
0
0
LINE
8
MEMBERS
10
8930
20
1480
30
0
11
8950
21
1480
31
0
0
LINE
8
MEMBERS
10
8950
20
1480
30
0
11
8950
21
1520
31
0
0
LINE
8
MEMBERS
10
8950
20
1520
30
0
11
8930
21
1520
31
0
0
LINE
8
MEMBERS
10
8930
20
1520
30
0
11
8930
21
1480
31
0
0
LINE
8
MEMBERS
10
9280
20
1520
30
0
11
9300
21
1520
31
0
0
LINE
8
MEMBERS
10
9300
20
1520
30
0
11
9300
21
2180
31
0
0
LINE
8
MEMBERS
10
9300
20
2180
30
0
11
9280
21
2180
31
0
0
LINE
8
MEMBERS
10
9280
20
2180
30
0
11
9280
21
1520
31
0
0
LINE
8
MEMBERS
10
8930
20
1520
30
0
11
8950
21
1520
31
0
0
LINE
8
MEMBERS
10
8950
20
1520
30
0
11
8950
21
2180
31
0
0
LINE
8
MEMBERS
10
8950
20
2180
30
0
11
8930
21
2180
31
0
0
LINE
8
MEMBERS
10
8930
20
2180
30
0
11
8930
21
1520
31
0
0
LINE
8
MEMBERS
10
9280
20
1520
30
0
11
9300
21
1520
31
0
0
LINE
8
MEMBERS
10
9300
20
1520
30
0
11
9300
21
2180
31
0
0
LINE
8
MEMBERS
10
9300
20
2180
30
0
11
9280
21
2180
31
0
0
LINE
8
MEMBERS
10
9280
20
2180
30
0
11
9280
21
1520
31
0
0
LINE
8
MEMBERS
10
8930
20
1520
30
0
11
8950
21
1520
31
0
0
LINE
8
MEMBERS
10
8950
20
1520
30
0
11
8950
21
2180
31
0
0
LINE
8
MEMBERS
10
8950
20
2180
30
0
11
8930
21
2180
31
0
0
LINE
8
MEMBERS
10
8930
20
2180
30
0
11
8930
21
1520
31
0
0
LINE
8
MEMBERS
10
9280
20
1520
30
0
11
9300
21
1520
31
0
0
LINE
8
MEMBERS
10
9300
20
1520
30
0
11
9300
21
2180
31
0
0
LINE
8
MEMBERS
10
9300
20
2180
30
0
11
9280
21
2180
31
0
0
LINE
8
MEMBERS
10
9280
20
2180
30
0
11
9280
21
1520
31
0
0
LINE
8
MEMBERS
10
8930
20
1520
30
0
11
8950
21
1520
31
0
0
LINE
8
MEMBERS
10
8950
20
1520
30
0
11
8950
21
2180
31
0
0
LINE
8
MEMBERS
10
8950
20
2180
30
0
11
8930
21
2180
31
0
0
LINE
8
MEMBERS
10
8930
20
2180
30
0
11
8930
21
1520
31
0
0
LINE
8
MEMBERS
10
9280
20
1520
30
0
11
9300
21
1520
31
0
0
LINE
8
MEMBERS
10
9300
20
1520
30
0
11
9300
21
2180
31
0
0
LINE
8
MEMBERS
10
9300
20
2180
30
0
11
9280
21
2180
31
0
0
LINE
8
MEMBERS
10
9280
20
2180
30
0
11
9280
21
1520
31
0
0
LINE
8
MEMBERS
10
8930
20
1520
30
0
11
8950
21
1520
31
0
0
LINE
8
MEMBERS
10
8950
20
1520
30
0
11
8950
21
2180
31
0
0
LINE
8
MEMBERS
10
8950
20
2180
30
0
11
8930
21
2180
31
0
0
LINE
8
MEMBERS
10
8930
20
2180
30
0
11
8930
21
1520
31
0
0
LINE
8
MEMBERS
10
9280
20
1520
30
0
11
9300
21
1520
31
0
0
LINE
8
MEMBERS
10
9300
20
1520
30
0
11
9300
21
2180
31
0
0
LINE
8
MEMBERS
10
9300
20
2180
30
0
11
9280
21
2180
31
0
0
LINE
8
MEMBERS
10
9280
20
2180
30
0
11
9280
21
1520
31
0
0
LINE
8
MEMBERS
10
8930
20
1520
30
0
11
8950
21
1520
31
0
0
LINE
8
MEMBERS
10
8950
20
1520
30
0
11
8950
21
2180
31
0
0
LINE
8
MEMBERS
10
8950
20
2180
30
0
11
8930
21
2180
31
0
0
LINE
8
MEMBERS
10
8930
20
2180
30
0
11
8930
21
1520
31
0
0
LINE
8
MEMBERS
10
9280
20
1520
30
0
11
9300
21
1520
31
0
0
LINE
8
MEMBERS
10
9300
20
1520
30
0
11
9300
21
2180
31
0
0
LINE
8
MEMBERS
10
9300
20
2180
30
0
11
9280
21
2180
31
0
0
LINE
8
MEMBERS
10
9280
20
2180
30
0
11
9280
21
1520
31
0
0
LINE
8
MEMBERS
10
8930
20
1520
30
0
11
8950
21
1520
31
0
0
LINE
8
MEMBERS
10
8950
20
1520
30
0
11
8950
21
2180
31
0
0
LINE
8
MEMBERS
10
8950
20
2180
30
0
11
8930
21
2180
31
0
0
LINE
8
MEMBERS
10
8930
20
2180
30
0
11
8930
21
1520
31
0
0
LINE
8
MEMBERS
10
9280
20
1520
30
0
11
9300
21
1520
31
0
0
LINE
8
MEMBERS
10
9300
20
1520
30
0
11
9300
21
2180
31
0
0
LINE
8
MEMBERS
10
9300
20
2180
30
0
11
9280
21
2180
31
0
0
LINE
8
MEMBERS
10
9280
20
2180
30
0
11
9280
21
1520
31
0
0
LINE
8
MEMBERS
10
8930
20
1520
30
0
11
8950
21
1520
31
0
0
LINE
8
MEMBERS
10
8950
20
1520
30
0
11
8950
21
2180
31
0
0
LINE
8
MEMBERS
10
8950
20
2180
30
0
11
8930
21
2180
31
0
0
LINE
8
MEMBERS
10
8930
20
2180
30
0
11
8930
21
1520
31
0
0
LINE
8
MEMBERS
10
9280
20
2180
30
0
11
9300
21
2180
31
0
0
LINE
8
MEMBERS
10
9300
20
2180
30
0
11
9300
21
2220
31
0
0
LINE
8
MEMBERS
10
9300
20
2220
30
0
11
9280
21
2220
31
0
0
LINE
8
MEMBERS
10
9280
20
2220
30
0
11
9280
21
2180
31
0
0
LINE
8
MEMBERS
10
8930
20
2180
30
0
11
8950
21
2180
31
0
0
LINE
8
MEMBERS
10
8950
20
2180
30
0
11
8950
21
2220
31
0
0
LINE
8
MEMBERS
10
8950
20
2220
30
0
11
8930
21
2220
31
0
0
LINE
8
MEMBERS
10
8930
20
2220
30
0
11
8930
21
2180
31
0
0
LINE
8
MEMBERS
10
8950
20
1500
30
0
11
9280
21
1500
31
0
0
LINE
8
MEMBERS
10
9280
20
1500
30
0
11
9280
21
1520
31
0
0
LINE
8
MEMBERS
10
9280
20
1520
30
0
11
8950
21
1520
31
0
0
LINE
8
MEMBERS
10
8950
20
1520
30
0
11
8950
21
1500
31
0
0
LINE
8
MEMBERS
10
8950
20
2200
30
0
11
9280
21
2200
31
0
0
LINE
8
MEMBERS
10
9280
20
2200
30
0
11
9280
21
2220
31
0
0
LINE
8
MEMBERS
10
9280
20
2220
30
0
11
8950
21
2220
31
0
0
LINE
8
MEMBERS
10
8950
20
2220
30
0
11
8950
21
2200
31
0
0
LINE
8
MEMBERS
10
8950
20
1500
30
0
11
9280
21
1500
31
0
0
LINE
8
MEMBERS
10
9280
20
1500
30
0
11
9280
21
1520
31
0
0
LINE
8
MEMBERS
10
9280
20
1520
30
0
11
8950
21
1520
31
0
0
LINE
8
MEMBERS
10
8950
20
1520
30
0
11
8950
21
1500
31
0
0
LINE
8
MEMBERS
10
8950
20
2200
30
0
11
9280
21
2200
31
0
0
LINE
8
MEMBERS
10
9280
20
2200
30
0
11
9280
21
2220
31
0
0
LINE
8
MEMBERS
10
9280
20
2220
30
0
11
8950
21
2220
31
0
0
LINE
8
MEMBERS
10
8950
20
2220
30
0
11
8950
21
2200
31
0
0
LINE
8
MEMBERS
10
8950
20
1500
30
0
11
9280
21
1500
31
0
0
LINE
8
MEMBERS
10
9280
20
1500
30
0
11
9280
21
1520
31
0
0
LINE
8
MEMBERS
10
9280
20
1520
30
0
11
8950
21
1520
31
0
0
LINE
8
MEMBERS
10
8950
20
1520
30
0
11
8950
21
1500
31
0
0
LINE
8
MEMBERS
10
8950
20
2200
30
0
11
9280
21
2200
31
0
0
LINE
8
MEMBERS
10
9280
20
2200
30
0
11
9280
21
2220
31
0
0
LINE
8
MEMBERS
10
9280
20
2220
30
0
11
8950
21
2220
31
0
0
LINE
8
MEMBERS
10
8950
20
2220
30
0
11
8950
21
2200
31
0
0
LINE
8
MEMBERS
10
8950
20
1500
30
0
11
9280
21
1500
31
0
0
LINE
8
MEMBERS
10
9280
20
1500
30
0
11
9280
21
1520
31
0
0
LINE
8
MEMBERS
10
9280
20
1520
30
0
11
8950
21
1520
31
0
0
LINE
8
MEMBERS
10
8950
20
1520
30
0
11
8950
21
1500
31
0
0
LINE
8
MEMBERS
10
8950
20
2200
30
0
11
9280
21
2200
31
0
0
LINE
8
MEMBERS
10
9280
20
2200
30
0
11
9280
21
2220
31
0
0
LINE
8
MEMBERS
10
9280
20
2220
30
0
11
8950
21
2220
31
0
0
LINE
8
MEMBERS
10
8950
20
2220
30
0
11
8950
21
2200
31
0
0
LINE
8
MEMBERS
10
8950
20
1500
30
0
11
9280
21
1500
31
0
0
LINE
8
MEMBERS
10
9280
20
1500
30
0
11
9280
21
1520
31
0
0
LINE
8
MEMBERS
10
9280
20
1520
30
0
11
8950
21
1520
31
0
0
LINE
8
MEMBERS
10
8950
20
1520
30
0
11
8950
21
1500
31
0
0
LINE
8
MEMBERS
10
8950
20
2200
30
0
11
9280
21
2200
31
0
0
LINE
8
MEMBERS
10
9280
20
2200
30
0
11
9280
21
2220
31
0
0
LINE
8
MEMBERS
10
9280
20
2220
30
0
11
8950
21
2220
31
0
0
LINE
8
MEMBERS
10
8950
20
2220
30
0
11
8950
21
2200
31
0
0
LINE
8
MEMBERS
10
8950
20
1500
30
0
11
9280
21
1500
31
0
0
LINE
8
MEMBERS
10
9280
20
1500
30
0
11
9280
21
1520
31
0
0
LINE
8
MEMBERS
10
9280
20
1520
30
0
11
8950
21
1520
31
0
0
LINE
8
MEMBERS
10
8950
20
1520
30
0
11
8950
21
1500
31
0
0
LINE
8
MEMBERS
10
8950
20
2200
30
0
11
9280
21
2200
31
0
0
LINE
8
MEMBERS
10
9280
20
2200
30
0
11
9280
21
2220
31
0
0
LINE
8
MEMBERS
10
9280
20
2220
30
0
11
8950
21
2220
31
0
0
LINE
8
MEMBERS
10
8950
20
2220
30
0
11
8950
21
2200
31
0
0
LINE
8
MEMBERS
10
8950
20
1500
30
0
11
9280
21
1500
31
0
0
LINE
8
MEMBERS
10
9280
20
1500
30
0
11
9280
21
1520
31
0
0
LINE
8
MEMBERS
10
9280
20
1520
30
0
11
8950
21
1520
31
0
0
LINE
8
MEMBERS
10
8950
20
1520
30
0
11
8950
21
1500
31
0
0
LINE
8
MEMBERS
10
8950
20
2200
30
0
11
9280
21
2200
31
0
0
LINE
8
MEMBERS
10
9280
20
2200
30
0
11
9280
21
2220
31
0
0
LINE
8
MEMBERS
10
9280
20
2220
30
0
11
8950
21
2220
31
0
0
LINE
8
MEMBERS
10
8950
20
2220
30
0
11
8950
21
2200
31
0
0
LINE
8
MEMBERS
10
8700
20
445
30
0
11
9260
21
445
31
0
0
LINE
8
MEMBERS
10
9260
20
445
30
0
11
9260
21
465
31
0
0
LINE
8
MEMBERS
10
9260
20
465
30
0
11
8700
21
465
31
0
0
LINE
8
MEMBERS
10
8700
20
465
30
0
11
8700
21
445
31
0
0
LINE
8
MEMBERS
10
8700
20
440
30
0
11
9280
21
440
31
0
0
LINE
8
MEMBERS
10
9280
20
440
30
0
11
9280
21
460
31
0
0
LINE
8
MEMBERS
10
9280
20
460
30
0
11
8700
21
460
31
0
0
LINE
8
MEMBERS
10
8700
20
460
30
0
11
8700
21
440
31
0
0
LINE
8
MEMBERS
10
8700
20
440
30
0
11
9280
21
440
31
0
0
LINE
8
MEMBERS
10
9280
20
440
30
0
11
9280
21
460
31
0
0
LINE
8
MEMBERS
10
9280
20
460
30
0
11
8700
21
460
31
0
0
LINE
8
MEMBERS
10
8700
20
460
30
0
11
8700
21
440
31
0
0
LINE
8
MEMBERS
10
8700
20
440
30
0
11
9280
21
440
31
0
0
LINE
8
MEMBERS
10
9280
20
440
30
0
11
9280
21
460
31
0
0
LINE
8
MEMBERS
10
9280
20
460
30
0
11
8700
21
460
31
0
0
LINE
8
MEMBERS
10
8700
20
460
30
0
11
8700
21
440
31
0
0
LINE
8
MEMBERS
10
8700
20
440
30
0
11
9280
21
440
31
0
0
LINE
8
MEMBERS
10
9280
20
440
30
0
11
9280
21
460
31
0
0
LINE
8
MEMBERS
10
9280
20
460
30
0
11
8700
21
460
31
0
0
LINE
8
MEMBERS
10
8700
20
460
30
0
11
8700
21
440
31
0
0
LINE
8
MEMBERS
10
8700
20
445
30
0
11
9260
21
445
31
0
0
LINE
8
MEMBERS
10
9260
20
445
30
0
11
9260
21
465
31
0
0
LINE
8
MEMBERS
10
9260
20
465
30
0
11
8700
21
465
31
0
0
LINE
8
MEMBERS
10
8700
20
465
30
0
11
8700
21
445
31
0
0
LINE
8
MEMBERS
10
8950
20
1840
30
0
11
9280
21
1840
31
0
0
LINE
8
MEMBERS
10
9280
20
1840
30
0
11
9280
21
1860
31
0
0
LINE
8
MEMBERS
10
9280
20
1860
30
0
11
8950
21
1860
31
0
0
LINE
8
MEMBERS
10
8950
20
1860
30
0
11
8950
21
1840
31
0
0
LINE
8
MEMBERS
10
8950
20
1840
30
0
11
9280
21
1840
31
0
0
LINE
8
MEMBERS
10
9280
20
1840
30
0
11
9280
21
1860
31
0
0
LINE
8
MEMBERS
10
9280
20
1860
30
0
11
8950
21
1860
31
0
0
LINE
8
MEMBERS
10
8950
20
1860
30
0
11
8950
21
1840
31
0
0
LINE
8
MEMBERS
10
8950
20
1840
30
0
11
9280
21
1840
31
0
0
LINE
8
MEMBERS
10
9280
20
1840
30
0
11
9280
21
1860
31
0
0
LINE
8
MEMBERS
10
9280
20
1860
30
0
11
8950
21
1860
31
0
0
LINE
8
MEMBERS
10
8950
20
1860
30
0
11
8950
21
1840
31
0
0
LINE
8
MEMBERS
10
8950
20
1840
30
0
11
9280
21
1840
31
0
0
LINE
8
MEMBERS
10
9280
20
1840
30
0
11
9280
21
1860
31
0
0
LINE
8
MEMBERS
10
9280
20
1860
30
0
11
8950
21
1860
31
0
0
LINE
8
MEMBERS
10
8950
20
1860
30
0
11
8950
21
1840
31
0
0
LINE
8
MEMBERS
10
8950
20
1840
30
0
11
9280
21
1840
31
0
0
LINE
8
MEMBERS
10
9280
20
1840
30
0
11
9280
21
1860
31
0
0
LINE
8
MEMBERS
10
9280
20
1860
30
0
11
8950
21
1860
31
0
0
LINE
8
MEMBERS
10
8950
20
1860
30
0
11
8950
21
1840
31
0
0
LINE
8
MEMBERS
10
8950
20
1840
30
0
11
9280
21
1840
31
0
0
LINE
8
MEMBERS
10
9280
20
1840
30
0
11
9280
21
1860
31
0
0
LINE
8
MEMBERS
10
9280
20
1860
30
0
11
8950
21
1860
31
0
0
LINE
8
MEMBERS
10
8950
20
1860
30
0
11
8950
21
1840
31
0
0
LINE
8
BOARDS
10
8671
20
443.5
30
0
11
9299
21
443.5
31
0
0
LINE
8
BOARDS
10
9299
20
443.5
30
0
11
9299
21
461.5
31
0
0
LINE
8
BOARDS
10
9299
20
461.5
30
0
11
8671
21
461.5
31
0
0
LINE
8
BOARDS
10
8671
20
461.5
30
0
11
8671
21
443.5
31
0
0
LINE
8
BOARDS
10
8681
20
441
30
0
11
9299
21
441
31
0
0
LINE
8
BOARDS
10
9299
20
441
30
0
11
9299
21
459
31
0
0
LINE
8
BOARDS
10
9299
20
459
30
0
11
8681
21
459
31
0
0
LINE
8
BOARDS
10
8681
20
459
30
0
11
8681
21
441
31
0
0
LINE
8
BOARDS
10
8681
20
441
30
0
11
9299
21
441
31
0
0
LINE
8
BOARDS
10
9299
20
441
30
0
11
9299
21
459
31
0
0
LINE
8
BOARDS
10
9299
20
459
30
0
11
8681
21
459
31
0
0
LINE
8
BOARDS
10
8681
20
459
30
0
11
8681
21
441
31
0
0
LINE
8
BOARDS
10
8671
20
443.5
30
0
11
9299
21
443.5
31
0
0
LINE
8
BOARDS
10
9299
20
443.5
30
0
11
9299
21
461.5
31
0
0
LINE
8
BOARDS
10
9299
20
461.5
30
0
11
8671
21
461.5
31
0
0
LINE
8
BOARDS
10
8671
20
461.5
30
0
11
8671
21
443.5
31
0
0
LINE
8
BOARDS
10
8931
20
1841
30
0
11
9299
21
1841
31
0
0
LINE
8
BOARDS
10
9299
20
1841
30
0
11
9299
21
1859
31
0
0
LINE
8
BOARDS
10
9299
20
1859
30
0
11
8931
21
1859
31
0
0
LINE
8
BOARDS
10
8931
20
1859
30
0
11
8931
21
1841
31
0
0
LINE
8
BOARDS
10
8931
20
1841
30
0
11
9299
21
1841
31
0
0
LINE
8
BOARDS
10
9299
20
1841
30
0
11
9299
21
1859
31
0
0
LINE
8
BOARDS
10
9299
20
1859
30
0
11
8931
21
1859
31
0
0
LINE
8
BOARDS
10
8931
20
1859
30
0
11
8931
21
1841
31
0
0
LINE
8
BOARDS
10
8931
20
1841
30
0
11
9299
21
1841
31
0
0
LINE
8
BOARDS
10
9299
20
1841
30
0
11
9299
21
1859
31
0
0
LINE
8
BOARDS
10
9299
20
1859
30
0
11
8931
21
1859
31
0
0
LINE
8
BOARDS
10
8931
20
1859
30
0
11
8931
21
1841
31
0
0
LINE
8
BOARDS
10
8931
20
1841
30
0
11
9299
21
1841
31
0
0
LINE
8
BOARDS
10
9299
20
1841
30
0
11
9299
21
1859
31
0
0
LINE
8
BOARDS
10
9299
20
1859
30
0
11
8931
21
1859
31
0
0
LINE
8
BOARDS
10
8931
20
1859
30
0
11
8931
21
1841
31
0
0
LINE
8
FITTINGS
10
8640
20
60
30
0
11
9280
21
60
31
0
0
LINE
8
FITTINGS
10
9280
20
60
30
0
11
9280
21
860
31
0
0
LINE
8
FITTINGS
10
9280
20
860
30
0
11
8640
21
860
31
0
0
LINE
8
FITTINGS
10
8640
20
860
30
0
11
8640
21
60
31
0
0
LINE
8
FITTINGS
10
8650
20
40
30
0
11
9290
21
40
31
0
0
LINE
8
FITTINGS
10
9290
20
40
30
0
11
9290
21
880
31
0
0
LINE
8
FITTINGS
10
9290
20
880
30
0
11
8650
21
880
31
0
0
LINE
8
FITTINGS
10
8650
20
880
30
0
11
8650
21
40
31
0
0
LINE
8
FITTINGS
10
8650
20
40
30
0
11
9290
21
40
31
0
0
LINE
8
FITTINGS
10
9290
20
40
30
0
11
9290
21
880
31
0
0
LINE
8
FITTINGS
10
9290
20
880
30
0
11
8650
21
880
31
0
0
LINE
8
FITTINGS
10
8650
20
880
30
0
11
8650
21
40
31
0
0
LINE
8
FITTINGS
10
8640
20
60
30
0
11
9280
21
60
31
0
0
LINE
8
FITTINGS
10
9280
20
60
30
0
11
9280
21
860
31
0
0
LINE
8
FITTINGS
10
9280
20
860
30
0
11
8640
21
860
31
0
0
LINE
8
FITTINGS
10
8640
20
860
30
0
11
8640
21
60
31
0
0
LINE
8
FITTINGS
10
8650
20
1520
30
0
11
9290
21
1520
31
0
0
LINE
8
FITTINGS
10
9290
20
1520
30
0
11
9290
21
2180
31
0
0
LINE
8
FITTINGS
10
9290
20
2180
30
0
11
8650
21
2180
31
0
0
LINE
8
FITTINGS
10
8650
20
2180
30
0
11
8650
21
1520
31
0
0
LINE
8
FITTINGS
10
8650
20
1520
30
0
11
9290
21
1520
31
0
0
LINE
8
FITTINGS
10
9290
20
1520
30
0
11
9290
21
2180
31
0
0
LINE
8
FITTINGS
10
9290
20
2180
30
0
11
8650
21
2180
31
0
0
LINE
8
FITTINGS
10
8650
20
2180
30
0
11
8650
21
1520
31
0
0
LINE
8
FITTINGS
10
8700
20
40
30
0
11
9280
21
40
31
0
0
LINE
8
FITTINGS
10
9280
20
40
30
0
11
9280
21
420
31
0
0
LINE
8
FITTINGS
10
9280
20
420
30
0
11
8700
21
420
31
0
0
LINE
8
FITTINGS
10
8700
20
420
30
0
11
8700
21
40
31
0
0
LINE
8
FITTINGS
10
8700
20
420
30
0
11
9280
21
420
31
0
0
LINE
8
FITTINGS
10
9280
20
420
30
0
11
9280
21
800
31
0
0
LINE
8
FITTINGS
10
9280
20
800
30
0
11
8700
21
800
31
0
0
LINE
8
FITTINGS
10
8700
20
800
30
0
11
8700
21
420
31
0
0
LINE
8
DIMS
10
8640
20
0
30
0
11
8640
21
-160
31
0
0
LINE
8
DIMS
10
9300
20
0
30
0
11
9300
21
-160
31
0
0
LINE
8
DIMS
10
8640
20
-140
30
0
11
9300
21
-140
31
0
0
TEXT
8
DIMS
10
8916
20
-220
30
0
40
60
1
660
0
LINE
8
DIMS
10
9300
20
0
30
0
11
9460
21
0
31
0
0
LINE
8
DIMS
10
9300
20
2220
30
0
11
9460
21
2220
31
0
0
LINE
8
DIMS
10
9440
20
0
30
0
11
9440
21
2220
31
0
0
TEXT
8
DIMS
10
9470
20
1080
30
0
40
60
1
2220
0
TEXT
8
TEXT
10
8640
20
2280
30
0
40
60
1
RIGHT (Z-Y)
0
TEXT
8
TEXT
10
0
20
-640
30
0
40
60
1
BOARDS (26)
0
LINE
8
CUTSHEET
10
0
20
-1390
30
0
11
610
21
-1390
31
0
0
LINE
8
CUTSHEET
10
610
20
-1390
30
0
11
610
21
-820
31
0
0
LINE
8
CUTSHEET
10
610
20
-820
30
0
11
0
21
-820
31
0
0
LINE
8
CUTSHEET
10
0
20
-820
30
0
11
0
21
-1390
31
0
0
TEXT
8
TEXT
10
0
20
-1436
30
0
40
36
1
610x570x18 mdf
0
LINE
8
CUTSHEET
10
810
20
-1400
30
0
11
1410
21
-1400
31
0
0
LINE
8
CUTSHEET
10
1410
20
-1400
30
0
11
1410
21
-820
31
0
0
LINE
8
CUTSHEET
10
1410
20
-820
30
0
11
810
21
-820
31
0
0
LINE
8
CUTSHEET
10
810
20
-820
30
0
11
810
21
-1400
31
0
0
TEXT
8
TEXT
10
810
20
-1446
30
0
40
36
1
600x580x18 mdf
0
LINE
8
CUTSHEET
10
1610
20
-1400
30
0
11
2210
21
-1400
31
0
0
LINE
8
CUTSHEET
10
2210
20
-1400
30
0
11
2210
21
-820
31
0
0
LINE
8
CUTSHEET
10
2210
20
-820
30
0
11
1610
21
-820
31
0
0
LINE
8
CUTSHEET
10
1610
20
-820
30
0
11
1610
21
-1400
31
0
0
TEXT
8
TEXT
10
1610
20
-1446
30
0
40
36
1
600x580x18 mdf
0
LINE
8
CUTSHEET
10
2410
20
-1390
30
0
11
3020
21
-1390
31
0
0
LINE
8
CUTSHEET
10
3020
20
-1390
30
0
11
3020
21
-820
31
0
0
LINE
8
CUTSHEET
10
3020
20
-820
30
0
11
2410
21
-820
31
0
0
LINE
8
CUTSHEET
10
2410
20
-820
30
0
11
2410
21
-1390
31
0
0
TEXT
8
TEXT
10
2410
20
-1436
30
0
40
36
1
610x570x18 mdf
0
LINE
8
CUTSHEET
10
3220
20
-1400
30
0
11
3570
21
-1400
31
0
0
LINE
8
CUTSHEET
10
3570
20
-1400
30
0
11
3570
21
-820
31
0
0
LINE
8
CUTSHEET
10
3570
20
-820
30
0
11
3220
21
-820
31
0
0
LINE
8
CUTSHEET
10
3220
20
-820
30
0
11
3220
21
-1400
31
0
0
TEXT
8
TEXT
10
3220
20
-1446
30
0
40
36
1
350x580x18 mdf
0
LINE
8
CUTSHEET
10
3770
20
-1400
30
0
11
4120
21
-1400
31
0
0
LINE
8
CUTSHEET
10
4120
20
-1400
30
0
11
4120
21
-820
31
0
0
LINE
8
CUTSHEET
10
4120
20
-820
30
0
11
3770
21
-820
31
0
0
LINE
8
CUTSHEET
10
3770
20
-820
30
0
11
3770
21
-1400
31
0
0
TEXT
8
TEXT
10
3770
20
-1446
30
0
40
36
1
350x580x18 mdf
0
LINE
8
CUTSHEET
10
4320
20
-1400
30
0
11
4670
21
-1400
31
0
0
LINE
8
CUTSHEET
10
4670
20
-1400
30
0
11
4670
21
-820
31
0
0
LINE
8
CUTSHEET
10
4670
20
-820
30
0
11
4320
21
-820
31
0
0
LINE
8
CUTSHEET
10
4320
20
-820
30
0
11
4320
21
-1400
31
0
0
TEXT
8
TEXT
10
4320
20
-1446
30
0
40
36
1
350x580x18 mdf
0
LINE
8
CUTSHEET
10
4870
20
-1400
30
0
11
5220
21
-1400
31
0
0
LINE
8
CUTSHEET
10
5220
20
-1400
30
0
11
5220
21
-820
31
0
0
LINE
8
CUTSHEET
10
5220
20
-820
30
0
11
4870
21
-820
31
0
0
LINE
8
CUTSHEET
10
4870
20
-820
30
0
11
4870
21
-1400
31
0
0
TEXT
8
TEXT
10
4870
20
-1446
30
0
40
36
1
350x580x18 mdf
0
LINE
8
CUTSHEET
10
5420
20
-1650
30
0
11
6000
21
-1650
31
0
0
LINE
8
CUTSHEET
10
6000
20
-1650
30
0
11
6000
21
-820
31
0
0
LINE
8
CUTSHEET
10
6000
20
-820
30
0
11
5420
21
-820
31
0
0
LINE
8
CUTSHEET
10
5420
20
-820
30
0
11
5420
21
-1650
31
0
0
TEXT
8
TEXT
10
5420
20
-1696
30
0
40
36
1
580x830x18 door/panel
0
LINE
8
CUTSHEET
10
6200
20
-1690
30
0
11
6810
21
-1690
31
0
0
LINE
8
CUTSHEET
10
6810
20
-1690
30
0
11
6810
21
-820
31
0
0
LINE
8
CUTSHEET
10
6810
20
-820
30
0
11
6200
21
-820
31
0
0
LINE
8
CUTSHEET
10
6200
20
-820
30
0
11
6200
21
-1690
31
0
0
TEXT
8
TEXT
10
6200
20
-1736
30
0
40
36
1
610x870x18 door/panel
0
LINE
8
CUTSHEET
10
7010
20
-1690
30
0
11
7620
21
-1690
31
0
0
LINE
8
CUTSHEET
10
7620
20
-1690
30
0
11
7620
21
-820
31
0
0
LINE
8
CUTSHEET
10
7620
20
-820
30
0
11
7010
21
-820
31
0
0
LINE
8
CUTSHEET
10
7010
20
-820
30
0
11
7010
21
-1690
31
0
0
TEXT
8
TEXT
10
7010
20
-1736
30
0
40
36
1
610x870x18 door/panel
0
LINE
8
CUTSHEET
10
7820
20
-1650
30
0
11
8400
21
-1650
31
0
0
LINE
8
CUTSHEET
10
8400
20
-1650
30
0
11
8400
21
-820
31
0
0
LINE
8
CUTSHEET
10
8400
20
-820
30
0
11
7820
21
-820
31
0
0
LINE
8
CUTSHEET
10
7820
20
-820
30
0
11
7820
21
-1650
31
0
0
TEXT
8
TEXT
10
7820
20
-1696
30
0
40
36
1
580x830x18 door/panel
0
LINE
8
CUTSHEET
10
8600
20
-1510
30
0
11
9210
21
-1510
31
0
0
LINE
8
CUTSHEET
10
9210
20
-1510
30
0
11
9210
21
-820
31
0
0
LINE
8
CUTSHEET
10
9210
20
-820
30
0
11
8600
21
-820
31
0
0
LINE
8
CUTSHEET
10
8600
20
-820
30
0
11
8600
21
-1510
31
0
0
TEXT
8
TEXT
10
8600
20
-1556
30
0
40
36
1
610x690x18 door/panel
0
LINE
8
CUTSHEET
10
0
20
-2616
30
0
11
610
21
-2616
31
0
0
LINE
8
CUTSHEET
10
610
20
-2616
30
0
11
610
21
-1926
31
0
0
LINE
8
CUTSHEET
10
610
20
-1926
30
0
11
0
21
-1926
31
0
0
LINE
8
CUTSHEET
10
0
20
-1926
30
0
11
0
21
-2616
31
0
0
TEXT
8
TEXT
10
0
20
-2662
30
0
40
36
1
610x690x18 door/panel
0
LINE
8
CUTSHEET
10
810
20
-2280
30
0
11
1370
21
-2280
31
0
0
LINE
8
CUTSHEET
10
1370
20
-2280
30
0
11
1370
21
-1926
31
0
0
LINE
8
CUTSHEET
10
1370
20
-1926
30
0
11
810
21
-1926
31
0
0
LINE
8
CUTSHEET
10
810
20
-1926
30
0
11
810
21
-2280
31
0
0
TEXT
8
TEXT
10
810
20
-2326
30
0
40
36
1
560x354x15 drawer/side
0
LINE
8
CUTSHEET
10
1570
20
-2280
30
0
11
2130
21
-2280
31
0
0
LINE
8
CUTSHEET
10
2130
20
-2280
30
0
11
2130
21
-1926
31
0
0
LINE
8
CUTSHEET
10
2130
20
-1926
30
0
11
1570
21
-1926
31
0
0
LINE
8
CUTSHEET
10
1570
20
-1926
30
0
11
1570
21
-2280
31
0
0
TEXT
8
TEXT
10
1570
20
-2326
30
0
40
36
1
560x354x15 drawer/side
0
LINE
8
CUTSHEET
10
2330
20
-2280
30
0
11
2855
21
-2280
31
0
0
LINE
8
CUTSHEET
10
2855
20
-2280
30
0
11
2855
21
-1926
31
0
0
LINE
8
CUTSHEET
10
2855
20
-1926
30
0
11
2330
21
-1926
31
0
0
LINE
8
CUTSHEET
10
2330
20
-1926
30
0
11
2330
21
-2280
31
0
0
TEXT
8
TEXT
10
2330
20
-2326
30
0
40
36
1
525x354x15 drawer/back
0
LINE
8
CUTSHEET
10
3055
20
-2280
30
0
11
3580
21
-2280
31
0
0
LINE
8
CUTSHEET
10
3580
20
-2280
30
0
11
3580
21
-1926
31
0
0
LINE
8
CUTSHEET
10
3580
20
-1926
30
0
11
3055
21
-1926
31
0
0
LINE
8
CUTSHEET
10
3055
20
-1926
30
0
11
3055
21
-2280
31
0
0
TEXT
8
TEXT
10
3055
20
-2326
30
0
40
36
1
525x354x15 drawer/inner-front
0
LINE
8
CUTSHEET
10
3780
20
-2456
30
0
11
4305
21
-2456
31
0
0
LINE
8
CUTSHEET
10
4305
20
-2456
30
0
11
4305
21
-1926
31
0
0
LINE
8
CUTSHEET
10
4305
20
-1926
30
0
11
3780
21
-1926
31
0
0
LINE
8
CUTSHEET
10
3780
20
-1926
30
0
11
3780
21
-2456
31
0
0
TEXT
8
TEXT
10
3780
20
-2502
30
0
40
36
1
525x530x15 drawer/base
0
LINE
8
CUTSHEET
10
4505
20
-2336
30
0
11
5115
21
-2336
31
0
0
LINE
8
CUTSHEET
10
5115
20
-2336
30
0
11
5115
21
-1926
31
0
0
LINE
8
CUTSHEET
10
5115
20
-1926
30
0
11
4505
21
-1926
31
0
0
LINE
8
CUTSHEET
10
4505
20
-1926
30
0
11
4505
21
-2336
31
0
0
TEXT
8
TEXT
10
4505
20
-2382
30
0
40
36
1
610x410x18 drawer/front
0
LINE
8
CUTSHEET
10
5315
20
-2280
30
0
11
5875
21
-2280
31
0
0
LINE
8
CUTSHEET
10
5875
20
-2280
30
0
11
5875
21
-1926
31
0
0
LINE
8
CUTSHEET
10
5875
20
-1926
30
0
11
5315
21
-1926
31
0
0
LINE
8
CUTSHEET
10
5315
20
-1926
30
0
11
5315
21
-2280
31
0
0
TEXT
8
TEXT
10
5315
20
-2326
30
0
40
36
1
560x354x15 drawer/side
0
LINE
8
CUTSHEET
10
6075
20
-2280
30
0
11
6635
21
-2280
31
0
0
LINE
8
CUTSHEET
10
6635
20
-2280
30
0
11
6635
21
-1926
31
0
0
LINE
8
CUTSHEET
10
6635
20
-1926
30
0
11
6075
21
-1926
31
0
0
LINE
8
CUTSHEET
10
6075
20
-1926
30
0
11
6075
21
-2280
31
0
0
TEXT
8
TEXT
10
6075
20
-2326
30
0
40
36
1
560x354x15 drawer/side
0
LINE
8
CUTSHEET
10
6835
20
-2280
30
0
11
7360
21
-2280
31
0
0
LINE
8
CUTSHEET
10
7360
20
-2280
30
0
11
7360
21
-1926
31
0
0
LINE
8
CUTSHEET
10
7360
20
-1926
30
0
11
6835
21
-1926
31
0
0
LINE
8
CUTSHEET
10
6835
20
-1926
30
0
11
6835
21
-2280
31
0
0
TEXT
8
TEXT
10
6835
20
-2326
30
0
40
36
1
525x354x15 drawer/back
0
LINE
8
CUTSHEET
10
7560
20
-2280
30
0
11
8085
21
-2280
31
0
0
LINE
8
CUTSHEET
10
8085
20
-2280
30
0
11
8085
21
-1926
31
0
0
LINE
8
CUTSHEET
10
8085
20
-1926
30
0
11
7560
21
-1926
31
0
0
LINE
8
CUTSHEET
10
7560
20
-1926
30
0
11
7560
21
-2280
31
0
0
TEXT
8
TEXT
10
7560
20
-2326
30
0
40
36
1
525x354x15 drawer/inner-front
0
LINE
8
CUTSHEET
10
8285
20
-2456
30
0
11
8810
21
-2456
31
0
0
LINE
8
CUTSHEET
10
8810
20
-2456
30
0
11
8810
21
-1926
31
0
0
LINE
8
CUTSHEET
10
8810
20
-1926
30
0
11
8285
21
-1926
31
0
0
LINE
8
CUTSHEET
10
8285
20
-1926
30
0
11
8285
21
-2456
31
0
0
TEXT
8
TEXT
10
8285
20
-2502
30
0
40
36
1
525x530x15 drawer/base
0
LINE
8
CUTSHEET
10
9010
20
-2336
30
0
11
9620
21
-2336
31
0
0
LINE
8
CUTSHEET
10
9620
20
-2336
30
0
11
9620
21
-1926
31
0
0
LINE
8
CUTSHEET
10
9620
20
-1926
30
0
11
9010
21
-1926
31
0
0
LINE
8
CUTSHEET
10
9010
20
-1926
30
0
11
9010
21
-2336
31
0
0
TEXT
8
TEXT
10
9010
20
-2382
30
0
40
36
1
610x410x18 drawer/front
0
ENDSEC
0
EOF
